ISO-10303-21;
HEADER;
/* Generated by software containing ST-Developer
 * from STEP Tools, Inc. (www.steptools.com) 
 */
/* OPTION: using custom renumber hook */

FILE_DESCRIPTION(
/* description */ ('STEP AP242 Edition 2',
'CAx-IF Rec.Pracs.---Representation and Presentation of Product Manufa
cturing Information (PMI)---4.0---2014-10-13',
'CAx-IF Rec.Pracs.---3D Tessellated Geometry---0.4---2014-09-14','2;1',
'CAx-IF Rec.Pracs.---User Defined Attributes---1.5---2016-08-15'),
/* implementation_level */ '2;1');

FILE_NAME(
/* name */ 'Part Studio 1',
/* time_stamp */ '2026-05-03T17:19:19Z',
/* author */ (''),
/* organization */ (''),
/* preprocessor_version */ 'ST-DEVELOPER v20',
/* originating_system */ 'ONSHAPE BY PTC INC, 1.214',
/* authorisation */ '  ');

FILE_SCHEMA (('AP242_MANAGED_MODEL_BASED_3D_ENGINEERING_MIM_LF { 1 0 10303 442 3 1 4 }'));
ENDSEC;

DATA;
#10=SHAPE_REPRESENTATION_RELATIONSHIP('','',#1097,#11);
#11=ADVANCED_BREP_SHAPE_REPRESENTATION('',(#1095),#1831);
#12=CONICAL_SURFACE('',#1192,0.015,0.785398163397448);
#13=CONICAL_SURFACE('',#1193,0.015,0.785398163397448);
#14=CONICAL_SURFACE('',#1196,0.015,0.785398163397448);
#15=CONICAL_SURFACE('',#1197,0.015,0.785398163397448);
#16=ELLIPSE('',#1172,0.00282842712474619,0.002);
#17=ELLIPSE('',#1174,0.00282842712474619,0.002);
#18=CYLINDRICAL_SURFACE('',#1115,0.02);
#19=CYLINDRICAL_SURFACE('',#1118,0.02);
#20=CYLINDRICAL_SURFACE('',#1121,0.02);
#21=CYLINDRICAL_SURFACE('',#1124,0.02);
#22=CYLINDRICAL_SURFACE('',#1142,0.02);
#23=CYLINDRICAL_SURFACE('',#1144,0.02);
#24=CYLINDRICAL_SURFACE('',#1146,0.02);
#25=CYLINDRICAL_SURFACE('',#1148,0.02);
#26=CYLINDRICAL_SURFACE('',#1159,0.003);
#27=CYLINDRICAL_SURFACE('',#1160,0.003);
#28=CYLINDRICAL_SURFACE('',#1161,0.003);
#29=CYLINDRICAL_SURFACE('',#1162,0.003);
#30=CYLINDRICAL_SURFACE('',#1169,0.002);
#31=CYLINDRICAL_SURFACE('',#1170,0.002);
#32=CYLINDRICAL_SURFACE('',#1173,0.002);
#33=CYLINDRICAL_SURFACE('',#1175,0.002);
#34=CYLINDRICAL_SURFACE('',#1179,0.02);
#35=CYLINDRICAL_SURFACE('',#1182,0.02);
#36=CYLINDRICAL_SURFACE('',#1185,0.02);
#37=CYLINDRICAL_SURFACE('',#1188,0.02);
#38=LINE('',#1520,#152);
#39=LINE('',#1524,#153);
#40=LINE('',#1529,#154);
#41=LINE('',#1533,#155);
#42=LINE('',#1538,#156);
#43=LINE('',#1542,#157);
#44=LINE('',#1544,#158);
#45=LINE('',#1547,#159);
#46=LINE('',#1549,#160);
#47=LINE('',#1551,#161);
#48=LINE('',#1553,#162);
#49=LINE('',#1556,#163);
#50=LINE('',#1558,#164);
#51=LINE('',#1560,#165);
#52=LINE('',#1562,#166);
#53=LINE('',#1564,#167);
#54=LINE('',#1566,#168);
#55=LINE('',#1569,#169);
#56=LINE('',#1571,#170);
#57=LINE('',#1573,#171);
#58=LINE('',#1575,#172);
#59=LINE('',#1578,#173);
#60=LINE('',#1580,#174);
#61=LINE('',#1582,#175);
#62=LINE('',#1587,#176);
#63=LINE('',#1591,#177);
#64=LINE('',#1605,#178);
#65=LINE('',#1608,#179);
#66=LINE('',#1610,#180);
#67=LINE('',#1612,#181);
#68=LINE('',#1614,#182);
#69=LINE('',#1617,#183);
#70=LINE('',#1619,#184);
#71=LINE('',#1621,#185);
#72=LINE('',#1623,#186);
#73=LINE('',#1625,#187);
#74=LINE('',#1626,#188);
#75=LINE('',#1629,#189);
#76=LINE('',#1631,#190);
#77=LINE('',#1633,#191);
#78=LINE('',#1635,#192);
#79=LINE('',#1637,#193);
#80=LINE('',#1641,#194);
#81=LINE('',#1645,#195);
#82=LINE('',#1649,#196);
#83=LINE('',#1652,#197);
#84=LINE('',#1654,#198);
#85=LINE('',#1657,#199);
#86=LINE('',#1659,#200);
#87=LINE('',#1661,#201);
#88=LINE('',#1663,#202);
#89=LINE('',#1665,#203);
#90=LINE('',#1667,#204);
#91=LINE('',#1670,#205);
#92=LINE('',#1672,#206);
#93=LINE('',#1674,#207);
#94=LINE('',#1676,#208);
#95=LINE('',#1678,#209);
#96=LINE('',#1680,#210);
#97=LINE('',#1683,#211);
#98=LINE('',#1685,#212);
#99=LINE('',#1687,#213);
#100=LINE('',#1689,#214);
#101=LINE('',#1691,#215);
#102=LINE('',#1706,#216);
#103=LINE('',#1708,#217);
#104=LINE('',#1710,#218);
#105=LINE('',#1712,#219);
#106=LINE('',#1714,#220);
#107=LINE('',#1716,#221);
#108=LINE('',#1718,#222);
#109=LINE('',#1721,#223);
#110=LINE('',#1722,#224);
#111=LINE('',#1724,#225);
#112=LINE('',#1727,#226);
#113=LINE('',#1728,#227);
#114=LINE('',#1730,#228);
#115=LINE('',#1733,#229);
#116=LINE('',#1738,#230);
#117=LINE('',#1744,#231);
#118=LINE('',#1747,#232);
#119=LINE('',#1749,#233);
#120=LINE('',#1752,#234);
#121=LINE('',#1754,#235);
#122=LINE('',#1756,#236);
#123=LINE('',#1758,#237);
#124=LINE('',#1760,#238);
#125=LINE('',#1764,#239);
#126=LINE('',#1765,#240);
#127=LINE('',#1767,#241);
#128=LINE('',#1778,#242);
#129=LINE('',#1779,#243);
#130=LINE('',#1781,#244);
#131=LINE('',#1783,#245);
#132=LINE('',#1785,#246);
#133=LINE('',#1789,#247);
#134=LINE('',#1790,#248);
#135=LINE('',#1792,#249);
#136=LINE('',#1794,#250);
#137=LINE('',#1798,#251);
#138=LINE('',#1799,#252);
#139=LINE('',#1801,#253);
#140=LINE('',#1803,#254);
#141=LINE('',#1807,#255);
#142=LINE('',#1808,#256);
#143=LINE('',#1810,#257);
#144=LINE('',#1815,#258);
#145=LINE('',#1816,#259);
#146=LINE('',#1818,#260);
#147=LINE('',#1820,#261);
#148=LINE('',#1822,#262);
#149=LINE('',#1824,#263);
#150=LINE('',#1826,#264);
#151=LINE('',#1828,#265);
#152=VECTOR('',#1205,1.);
#153=VECTOR('',#1208,1.);
#154=VECTOR('',#1213,1.);
#155=VECTOR('',#1216,1.);
#156=VECTOR('',#1221,1.);
#157=VECTOR('',#1224,1.);
#158=VECTOR('',#1227,1.);
#159=VECTOR('',#1228,1.);
#160=VECTOR('',#1229,1.);
#161=VECTOR('',#1230,1.);
#162=VECTOR('',#1233,1.);
#163=VECTOR('',#1234,1.);
#164=VECTOR('',#1235,1.);
#165=VECTOR('',#1236,1.);
#166=VECTOR('',#1237,1.);
#167=VECTOR('',#1238,1.);
#168=VECTOR('',#1241,1.);
#169=VECTOR('',#1242,1.);
#170=VECTOR('',#1243,1.);
#171=VECTOR('',#1244,1.);
#172=VECTOR('',#1247,1.);
#173=VECTOR('',#1248,1.);
#174=VECTOR('',#1249,1.);
#175=VECTOR('',#1250,1.);
#176=VECTOR('',#1255,1.);
#177=VECTOR('',#1258,1.);
#178=VECTOR('',#1285,1.);
#179=VECTOR('',#1286,1.);
#180=VECTOR('',#1287,1.);
#181=VECTOR('',#1288,1.);
#182=VECTOR('',#1291,1.);
#183=VECTOR('',#1292,1.);
#184=VECTOR('',#1293,1.);
#185=VECTOR('',#1294,1.);
#186=VECTOR('',#1295,1.);
#187=VECTOR('',#1296,1.);
#188=VECTOR('',#1297,1.);
#189=VECTOR('',#1298,1.);
#190=VECTOR('',#1299,1.);
#191=VECTOR('',#1300,1.);
#192=VECTOR('',#1303,1.);
#193=VECTOR('',#1304,1.);
#194=VECTOR('',#1307,1.);
#195=VECTOR('',#1310,1.);
#196=VECTOR('',#1313,1.);
#197=VECTOR('',#1316,1.);
#198=VECTOR('',#1319,1.);
#199=VECTOR('',#1320,1.);
#200=VECTOR('',#1321,1.);
#201=VECTOR('',#1322,1.);
#202=VECTOR('',#1323,1.);
#203=VECTOR('',#1324,1.);
#204=VECTOR('',#1327,1.);
#205=VECTOR('',#1328,1.);
#206=VECTOR('',#1329,1.);
#207=VECTOR('',#1330,1.);
#208=VECTOR('',#1331,1.);
#209=VECTOR('',#1332,1.);
#210=VECTOR('',#1335,1.);
#211=VECTOR('',#1336,1.);
#212=VECTOR('',#1337,1.);
#213=VECTOR('',#1338,1.);
#214=VECTOR('',#1339,1.);
#215=VECTOR('',#1340,1.);
#216=VECTOR('',#1369,1.);
#217=VECTOR('',#1370,1.);
#218=VECTOR('',#1371,1.);
#219=VECTOR('',#1374,1.);
#220=VECTOR('',#1375,1.);
#221=VECTOR('',#1376,1.);
#222=VECTOR('',#1379,1.);
#223=VECTOR('',#1380,1.);
#224=VECTOR('',#1381,1.);
#225=VECTOR('',#1384,1.);
#226=VECTOR('',#1385,1.);
#227=VECTOR('',#1386,1.);
#228=VECTOR('',#1389,1.);
#229=VECTOR('',#1390,1.);
#230=VECTOR('',#1399,1.);
#231=VECTOR('',#1410,1.);
#232=VECTOR('',#1411,1.);
#233=VECTOR('',#1412,1.);
#234=VECTOR('',#1415,1.);
#235=VECTOR('',#1418,1.);
#236=VECTOR('',#1419,1.);
#237=VECTOR('',#1420,1.);
#238=VECTOR('',#1421,1.);
#239=VECTOR('',#1426,1.);
#240=VECTOR('',#1427,1.);
#241=VECTOR('',#1430,1.);
#242=VECTOR('',#1451,1.);
#243=VECTOR('',#1452,1.);
#244=VECTOR('',#1453,1.);
#245=VECTOR('',#1454,1.);
#246=VECTOR('',#1457,1.);
#247=VECTOR('',#1462,1.);
#248=VECTOR('',#1463,1.);
#249=VECTOR('',#1464,1.);
#250=VECTOR('',#1467,1.);
#251=VECTOR('',#1472,1.);
#252=VECTOR('',#1473,1.);
#253=VECTOR('',#1474,1.);
#254=VECTOR('',#1477,1.);
#255=VECTOR('',#1482,1.);
#256=VECTOR('',#1483,1.);
#257=VECTOR('',#1484,1.);
#258=VECTOR('',#1493,1.);
#259=VECTOR('',#1494,1.);
#260=VECTOR('',#1497,1.);
#261=VECTOR('',#1500,1.);
#262=VECTOR('',#1503,1.);
#263=VECTOR('',#1506,1.);
#264=VECTOR('',#1509,1.);
#265=VECTOR('',#1512,1.);
#266=ORIENTED_EDGE('',*,*,#578,.T.);
#267=ORIENTED_EDGE('',*,*,#579,.T.);
#268=ORIENTED_EDGE('',*,*,#580,.F.);
#269=ORIENTED_EDGE('',*,*,#581,.T.);
#270=ORIENTED_EDGE('',*,*,#582,.T.);
#271=ORIENTED_EDGE('',*,*,#583,.T.);
#272=ORIENTED_EDGE('',*,*,#584,.F.);
#273=ORIENTED_EDGE('',*,*,#585,.T.);
#274=ORIENTED_EDGE('',*,*,#586,.T.);
#275=ORIENTED_EDGE('',*,*,#587,.T.);
#276=ORIENTED_EDGE('',*,*,#588,.F.);
#277=ORIENTED_EDGE('',*,*,#589,.T.);
#278=ORIENTED_EDGE('',*,*,#590,.T.);
#279=ORIENTED_EDGE('',*,*,#591,.T.);
#280=ORIENTED_EDGE('',*,*,#592,.T.);
#281=ORIENTED_EDGE('',*,*,#593,.F.);
#282=ORIENTED_EDGE('',*,*,#594,.T.);
#283=ORIENTED_EDGE('',*,*,#595,.T.);
#284=ORIENTED_EDGE('',*,*,#596,.T.);
#285=ORIENTED_EDGE('',*,*,#597,.F.);
#286=ORIENTED_EDGE('',*,*,#598,.F.);
#287=ORIENTED_EDGE('',*,*,#599,.F.);
#288=ORIENTED_EDGE('',*,*,#600,.F.);
#289=ORIENTED_EDGE('',*,*,#601,.T.);
#290=ORIENTED_EDGE('',*,*,#602,.T.);
#291=ORIENTED_EDGE('',*,*,#603,.T.);
#292=ORIENTED_EDGE('',*,*,#604,.F.);
#293=ORIENTED_EDGE('',*,*,#605,.T.);
#294=ORIENTED_EDGE('',*,*,#606,.T.);
#295=ORIENTED_EDGE('',*,*,#607,.T.);
#296=ORIENTED_EDGE('',*,*,#608,.F.);
#297=ORIENTED_EDGE('',*,*,#609,.T.);
#298=ORIENTED_EDGE('',*,*,#610,.T.);
#299=ORIENTED_EDGE('',*,*,#611,.T.);
#300=ORIENTED_EDGE('',*,*,#612,.F.);
#301=ORIENTED_EDGE('',*,*,#590,.F.);
#302=ORIENTED_EDGE('',*,*,#613,.F.);
#303=ORIENTED_EDGE('',*,*,#596,.F.);
#304=ORIENTED_EDGE('',*,*,#614,.F.);
#305=ORIENTED_EDGE('',*,*,#603,.F.);
#306=ORIENTED_EDGE('',*,*,#615,.F.);
#307=ORIENTED_EDGE('',*,*,#605,.F.);
#308=ORIENTED_EDGE('',*,*,#616,.F.);
#309=ORIENTED_EDGE('',*,*,#594,.F.);
#310=ORIENTED_EDGE('',*,*,#617,.F.);
#311=ORIENTED_EDGE('',*,*,#601,.F.);
#312=ORIENTED_EDGE('',*,*,#618,.F.);
#313=ORIENTED_EDGE('',*,*,#607,.F.);
#314=ORIENTED_EDGE('',*,*,#619,.F.);
#315=ORIENTED_EDGE('',*,*,#592,.F.);
#316=ORIENTED_EDGE('',*,*,#620,.T.);
#317=ORIENTED_EDGE('',*,*,#621,.T.);
#318=ORIENTED_EDGE('',*,*,#622,.F.);
#319=ORIENTED_EDGE('',*,*,#623,.T.);
#320=ORIENTED_EDGE('',*,*,#624,.T.);
#321=ORIENTED_EDGE('',*,*,#625,.T.);
#322=ORIENTED_EDGE('',*,*,#626,.T.);
#323=ORIENTED_EDGE('',*,*,#627,.T.);
#324=ORIENTED_EDGE('',*,*,#628,.T.);
#325=ORIENTED_EDGE('',*,*,#629,.T.);
#326=ORIENTED_EDGE('',*,*,#630,.F.);
#327=ORIENTED_EDGE('',*,*,#631,.T.);
#328=ORIENTED_EDGE('',*,*,#632,.T.);
#329=ORIENTED_EDGE('',*,*,#633,.T.);
#330=ORIENTED_EDGE('',*,*,#597,.T.);
#331=ORIENTED_EDGE('',*,*,#613,.T.);
#332=ORIENTED_EDGE('',*,*,#593,.T.);
#333=ORIENTED_EDGE('',*,*,#619,.T.);
#334=ORIENTED_EDGE('',*,*,#606,.F.);
#335=ORIENTED_EDGE('',*,*,#615,.T.);
#336=ORIENTED_EDGE('',*,*,#602,.F.);
#337=ORIENTED_EDGE('',*,*,#617,.T.);
#338=ORIENTED_EDGE('',*,*,#599,.T.);
#339=ORIENTED_EDGE('',*,*,#634,.F.);
#340=ORIENTED_EDGE('',*,*,#635,.T.);
#341=ORIENTED_EDGE('',*,*,#636,.T.);
#342=ORIENTED_EDGE('',*,*,#637,.T.);
#343=ORIENTED_EDGE('',*,*,#638,.T.);
#344=ORIENTED_EDGE('',*,*,#639,.F.);
#345=ORIENTED_EDGE('',*,*,#640,.T.);
#346=ORIENTED_EDGE('',*,*,#641,.F.);
#347=ORIENTED_EDGE('',*,*,#642,.T.);
#348=ORIENTED_EDGE('',*,*,#622,.T.);
#349=ORIENTED_EDGE('',*,*,#643,.T.);
#350=ORIENTED_EDGE('',*,*,#644,.T.);
#351=ORIENTED_EDGE('',*,*,#645,.T.);
#352=ORIENTED_EDGE('',*,*,#646,.T.);
#353=ORIENTED_EDGE('',*,*,#647,.T.);
#354=ORIENTED_EDGE('',*,*,#648,.F.);
#355=ORIENTED_EDGE('',*,*,#649,.T.);
#356=ORIENTED_EDGE('',*,*,#650,.T.);
#357=ORIENTED_EDGE('',*,*,#651,.T.);
#358=ORIENTED_EDGE('',*,*,#652,.T.);
#359=ORIENTED_EDGE('',*,*,#653,.T.);
#360=ORIENTED_EDGE('',*,*,#654,.F.);
#361=ORIENTED_EDGE('',*,*,#655,.T.);
#362=ORIENTED_EDGE('',*,*,#656,.T.);
#363=ORIENTED_EDGE('',*,*,#657,.T.);
#364=ORIENTED_EDGE('',*,*,#658,.T.);
#365=ORIENTED_EDGE('',*,*,#659,.T.);
#366=ORIENTED_EDGE('',*,*,#660,.T.);
#367=ORIENTED_EDGE('',*,*,#661,.T.);
#368=ORIENTED_EDGE('',*,*,#654,.T.);
#369=ORIENTED_EDGE('',*,*,#662,.T.);
#370=ORIENTED_EDGE('',*,*,#660,.F.);
#371=ORIENTED_EDGE('',*,*,#663,.T.);
#372=ORIENTED_EDGE('',*,*,#628,.F.);
#373=ORIENTED_EDGE('',*,*,#664,.T.);
#374=ORIENTED_EDGE('',*,*,#648,.T.);
#375=ORIENTED_EDGE('',*,*,#665,.T.);
#376=ORIENTED_EDGE('',*,*,#652,.F.);
#377=ORIENTED_EDGE('',*,*,#666,.T.);
#378=ORIENTED_EDGE('',*,*,#656,.F.);
#379=ORIENTED_EDGE('',*,*,#661,.F.);
#380=ORIENTED_EDGE('',*,*,#662,.F.);
#381=ORIENTED_EDGE('',*,*,#653,.F.);
#382=ORIENTED_EDGE('',*,*,#658,.F.);
#383=ORIENTED_EDGE('',*,*,#667,.T.);
#384=ORIENTED_EDGE('',*,*,#624,.F.);
#385=ORIENTED_EDGE('',*,*,#629,.F.);
#386=ORIENTED_EDGE('',*,*,#663,.F.);
#387=ORIENTED_EDGE('',*,*,#659,.F.);
#388=ORIENTED_EDGE('',*,*,#626,.F.);
#389=ORIENTED_EDGE('',*,*,#668,.T.);
#390=ORIENTED_EDGE('',*,*,#644,.F.);
#391=ORIENTED_EDGE('',*,*,#649,.F.);
#392=ORIENTED_EDGE('',*,*,#664,.F.);
#393=ORIENTED_EDGE('',*,*,#627,.F.);
#394=ORIENTED_EDGE('',*,*,#646,.F.);
#395=ORIENTED_EDGE('',*,*,#669,.T.);
#396=ORIENTED_EDGE('',*,*,#650,.F.);
#397=ORIENTED_EDGE('',*,*,#655,.F.);
#398=ORIENTED_EDGE('',*,*,#665,.F.);
#399=ORIENTED_EDGE('',*,*,#647,.F.);
#400=ORIENTED_EDGE('',*,*,#670,.F.);
#401=ORIENTED_EDGE('',*,*,#671,.T.);
#402=ORIENTED_EDGE('',*,*,#672,.T.);
#403=ORIENTED_EDGE('',*,*,#635,.F.);
#404=ORIENTED_EDGE('',*,*,#641,.T.);
#405=ORIENTED_EDGE('',*,*,#673,.T.);
#406=ORIENTED_EDGE('',*,*,#674,.F.);
#407=ORIENTED_EDGE('',*,*,#675,.T.);
#408=ORIENTED_EDGE('',*,*,#676,.F.);
#409=ORIENTED_EDGE('',*,*,#677,.T.);
#410=ORIENTED_EDGE('',*,*,#639,.T.);
#411=ORIENTED_EDGE('',*,*,#678,.T.);
#412=ORIENTED_EDGE('',*,*,#679,.T.);
#413=ORIENTED_EDGE('',*,*,#680,.T.);
#414=ORIENTED_EDGE('',*,*,#637,.F.);
#415=ORIENTED_EDGE('',*,*,#681,.T.);
#416=ORIENTED_EDGE('',*,*,#682,.T.);
#417=ORIENTED_EDGE('',*,*,#683,.T.);
#418=ORIENTED_EDGE('',*,*,#620,.F.);
#419=ORIENTED_EDGE('',*,*,#684,.T.);
#420=ORIENTED_EDGE('',*,*,#674,.T.);
#421=ORIENTED_EDGE('',*,*,#685,.T.);
#422=ORIENTED_EDGE('',*,*,#676,.T.);
#423=ORIENTED_EDGE('',*,*,#686,.T.);
#424=ORIENTED_EDGE('',*,*,#679,.F.);
#425=ORIENTED_EDGE('',*,*,#687,.T.);
#426=ORIENTED_EDGE('',*,*,#671,.F.);
#427=ORIENTED_EDGE('',*,*,#688,.T.);
#428=ORIENTED_EDGE('',*,*,#685,.F.);
#429=ORIENTED_EDGE('',*,*,#673,.F.);
#430=ORIENTED_EDGE('',*,*,#640,.F.);
#431=ORIENTED_EDGE('',*,*,#677,.F.);
#432=ORIENTED_EDGE('',*,*,#686,.F.);
#433=ORIENTED_EDGE('',*,*,#678,.F.);
#434=ORIENTED_EDGE('',*,*,#638,.F.);
#435=ORIENTED_EDGE('',*,*,#680,.F.);
#436=ORIENTED_EDGE('',*,*,#684,.F.);
#437=ORIENTED_EDGE('',*,*,#623,.F.);
#438=ORIENTED_EDGE('',*,*,#642,.F.);
#439=ORIENTED_EDGE('',*,*,#675,.F.);
#440=ORIENTED_EDGE('',*,*,#687,.F.);
#441=ORIENTED_EDGE('',*,*,#681,.F.);
#442=ORIENTED_EDGE('',*,*,#636,.F.);
#443=ORIENTED_EDGE('',*,*,#672,.F.);
#444=ORIENTED_EDGE('',*,*,#689,.T.);
#445=ORIENTED_EDGE('',*,*,#690,.T.);
#446=ORIENTED_EDGE('',*,*,#691,.F.);
#447=ORIENTED_EDGE('',*,*,#643,.F.);
#448=ORIENTED_EDGE('',*,*,#621,.F.);
#449=ORIENTED_EDGE('',*,*,#683,.F.);
#450=ORIENTED_EDGE('',*,*,#692,.T.);
#451=ORIENTED_EDGE('',*,*,#693,.T.);
#452=ORIENTED_EDGE('',*,*,#634,.T.);
#453=ORIENTED_EDGE('',*,*,#694,.T.);
#454=ORIENTED_EDGE('',*,*,#695,.T.);
#455=ORIENTED_EDGE('',*,*,#696,.F.);
#456=ORIENTED_EDGE('',*,*,#697,.T.);
#457=ORIENTED_EDGE('',*,*,#698,.T.);
#458=ORIENTED_EDGE('',*,*,#688,.F.);
#459=ORIENTED_EDGE('',*,*,#670,.T.);
#460=ORIENTED_EDGE('',*,*,#696,.T.);
#461=ORIENTED_EDGE('',*,*,#699,.T.);
#462=ORIENTED_EDGE('',*,*,#689,.F.);
#463=ORIENTED_EDGE('',*,*,#700,.T.);
#464=ORIENTED_EDGE('',*,*,#693,.F.);
#465=ORIENTED_EDGE('',*,*,#701,.T.);
#466=ORIENTED_EDGE('',*,*,#697,.F.);
#467=ORIENTED_EDGE('',*,*,#700,.F.);
#468=ORIENTED_EDGE('',*,*,#698,.F.);
#469=ORIENTED_EDGE('',*,*,#701,.F.);
#470=ORIENTED_EDGE('',*,*,#692,.F.);
#471=ORIENTED_EDGE('',*,*,#682,.F.);
#472=ORIENTED_EDGE('',*,*,#702,.F.);
#473=ORIENTED_EDGE('',*,*,#633,.F.);
#474=ORIENTED_EDGE('',*,*,#703,.F.);
#475=ORIENTED_EDGE('',*,*,#695,.F.);
#476=ORIENTED_EDGE('',*,*,#703,.T.);
#477=ORIENTED_EDGE('',*,*,#632,.F.);
#478=ORIENTED_EDGE('',*,*,#704,.F.);
#479=ORIENTED_EDGE('',*,*,#699,.F.);
#480=ORIENTED_EDGE('',*,*,#705,.F.);
#481=ORIENTED_EDGE('',*,*,#690,.F.);
#482=ORIENTED_EDGE('',*,*,#704,.T.);
#483=ORIENTED_EDGE('',*,*,#631,.F.);
#484=ORIENTED_EDGE('',*,*,#598,.T.);
#485=ORIENTED_EDGE('',*,*,#691,.T.);
#486=ORIENTED_EDGE('',*,*,#705,.T.);
#487=ORIENTED_EDGE('',*,*,#630,.T.);
#488=ORIENTED_EDGE('',*,*,#702,.T.);
#489=ORIENTED_EDGE('',*,*,#694,.F.);
#490=ORIENTED_EDGE('',*,*,#706,.F.);
#491=ORIENTED_EDGE('',*,*,#707,.F.);
#492=ORIENTED_EDGE('',*,*,#708,.T.);
#493=ORIENTED_EDGE('',*,*,#709,.T.);
#494=ORIENTED_EDGE('',*,*,#588,.T.);
#495=ORIENTED_EDGE('',*,*,#710,.F.);
#496=ORIENTED_EDGE('',*,*,#711,.F.);
#497=ORIENTED_EDGE('',*,*,#707,.T.);
#498=ORIENTED_EDGE('',*,*,#712,.T.);
#499=ORIENTED_EDGE('',*,*,#713,.F.);
#500=ORIENTED_EDGE('',*,*,#714,.F.);
#501=ORIENTED_EDGE('',*,*,#710,.T.);
#502=ORIENTED_EDGE('',*,*,#584,.T.);
#503=ORIENTED_EDGE('',*,*,#715,.F.);
#504=ORIENTED_EDGE('',*,*,#716,.F.);
#505=ORIENTED_EDGE('',*,*,#713,.T.);
#506=ORIENTED_EDGE('',*,*,#717,.T.);
#507=ORIENTED_EDGE('',*,*,#718,.F.);
#508=ORIENTED_EDGE('',*,*,#719,.F.);
#509=ORIENTED_EDGE('',*,*,#715,.T.);
#510=ORIENTED_EDGE('',*,*,#580,.T.);
#511=ORIENTED_EDGE('',*,*,#720,.F.);
#512=ORIENTED_EDGE('',*,*,#721,.F.);
#513=ORIENTED_EDGE('',*,*,#718,.T.);
#514=ORIENTED_EDGE('',*,*,#722,.F.);
#515=ORIENTED_EDGE('',*,*,#723,.F.);
#516=ORIENTED_EDGE('',*,*,#724,.T.);
#517=ORIENTED_EDGE('',*,*,#720,.T.);
#518=ORIENTED_EDGE('',*,*,#608,.T.);
#519=ORIENTED_EDGE('',*,*,#709,.F.);
#520=ORIENTED_EDGE('',*,*,#725,.F.);
#521=ORIENTED_EDGE('',*,*,#723,.T.);
#522=ORIENTED_EDGE('',*,*,#591,.F.);
#523=ORIENTED_EDGE('',*,*,#612,.T.);
#524=ORIENTED_EDGE('',*,*,#595,.F.);
#525=ORIENTED_EDGE('',*,*,#616,.T.);
#526=ORIENTED_EDGE('',*,*,#600,.T.);
#527=ORIENTED_EDGE('',*,*,#614,.T.);
#528=ORIENTED_EDGE('',*,*,#604,.T.);
#529=ORIENTED_EDGE('',*,*,#618,.T.);
#530=ORIENTED_EDGE('',*,*,#708,.F.);
#531=ORIENTED_EDGE('',*,*,#711,.T.);
#532=ORIENTED_EDGE('',*,*,#714,.T.);
#533=ORIENTED_EDGE('',*,*,#716,.T.);
#534=ORIENTED_EDGE('',*,*,#719,.T.);
#535=ORIENTED_EDGE('',*,*,#721,.T.);
#536=ORIENTED_EDGE('',*,*,#724,.F.);
#537=ORIENTED_EDGE('',*,*,#725,.T.);
#538=ORIENTED_EDGE('',*,*,#726,.F.);
#539=ORIENTED_EDGE('',*,*,#625,.F.);
#540=ORIENTED_EDGE('',*,*,#727,.F.);
#541=ORIENTED_EDGE('',*,*,#585,.F.);
#542=ORIENTED_EDGE('',*,*,#712,.F.);
#543=ORIENTED_EDGE('',*,*,#587,.F.);
#544=ORIENTED_EDGE('',*,*,#727,.T.);
#545=ORIENTED_EDGE('',*,*,#667,.F.);
#546=ORIENTED_EDGE('',*,*,#728,.F.);
#547=ORIENTED_EDGE('',*,*,#582,.F.);
#548=ORIENTED_EDGE('',*,*,#726,.T.);
#549=ORIENTED_EDGE('',*,*,#586,.F.);
#550=ORIENTED_EDGE('',*,*,#729,.F.);
#551=ORIENTED_EDGE('',*,*,#668,.F.);
#552=ORIENTED_EDGE('',*,*,#728,.T.);
#553=ORIENTED_EDGE('',*,*,#657,.F.);
#554=ORIENTED_EDGE('',*,*,#730,.F.);
#555=ORIENTED_EDGE('',*,*,#581,.F.);
#556=ORIENTED_EDGE('',*,*,#717,.F.);
#557=ORIENTED_EDGE('',*,*,#583,.F.);
#558=ORIENTED_EDGE('',*,*,#706,.T.);
#559=ORIENTED_EDGE('',*,*,#611,.F.);
#560=ORIENTED_EDGE('',*,*,#731,.F.);
#561=ORIENTED_EDGE('',*,*,#645,.F.);
#562=ORIENTED_EDGE('',*,*,#729,.T.);
#563=ORIENTED_EDGE('',*,*,#589,.F.);
#564=ORIENTED_EDGE('',*,*,#730,.T.);
#565=ORIENTED_EDGE('',*,*,#666,.F.);
#566=ORIENTED_EDGE('',*,*,#732,.F.);
#567=ORIENTED_EDGE('',*,*,#578,.F.);
#568=ORIENTED_EDGE('',*,*,#731,.T.);
#569=ORIENTED_EDGE('',*,*,#610,.F.);
#570=ORIENTED_EDGE('',*,*,#733,.F.);
#571=ORIENTED_EDGE('',*,*,#669,.F.);
#572=ORIENTED_EDGE('',*,*,#732,.T.);
#573=ORIENTED_EDGE('',*,*,#651,.F.);
#574=ORIENTED_EDGE('',*,*,#733,.T.);
#575=ORIENTED_EDGE('',*,*,#609,.F.);
#576=ORIENTED_EDGE('',*,*,#722,.T.);
#577=ORIENTED_EDGE('',*,*,#579,.F.);
#578=EDGE_CURVE('',#734,#735,#834,.T.);
#579=EDGE_CURVE('',#735,#736,#38,.T.);
#580=EDGE_CURVE('',#737,#736,#835,.T.);
#581=EDGE_CURVE('',#737,#734,#39,.T.);
#582=EDGE_CURVE('',#738,#739,#836,.T.);
#583=EDGE_CURVE('',#739,#740,#40,.T.);
#584=EDGE_CURVE('',#741,#740,#837,.T.);
#585=EDGE_CURVE('',#741,#738,#41,.T.);
#586=EDGE_CURVE('',#742,#743,#838,.T.);
#587=EDGE_CURVE('',#743,#744,#42,.T.);
#588=EDGE_CURVE('',#745,#744,#839,.T.);
#589=EDGE_CURVE('',#745,#742,#43,.T.);
#590=EDGE_CURVE('',#746,#747,#44,.F.);
#591=EDGE_CURVE('',#747,#748,#45,.T.);
#592=EDGE_CURVE('',#748,#749,#46,.T.);
#593=EDGE_CURVE('',#746,#749,#47,.T.);
#594=EDGE_CURVE('',#750,#751,#48,.F.);
#595=EDGE_CURVE('',#751,#752,#49,.T.);
#596=EDGE_CURVE('',#752,#753,#50,.T.);
#597=EDGE_CURVE('',#754,#753,#51,.T.);
#598=EDGE_CURVE('',#755,#754,#52,.T.);
#599=EDGE_CURVE('',#750,#755,#53,.T.);
#600=EDGE_CURVE('',#756,#757,#54,.T.);
#601=EDGE_CURVE('',#756,#758,#55,.T.);
#602=EDGE_CURVE('',#758,#759,#56,.T.);
#603=EDGE_CURVE('',#759,#757,#57,.F.);
#604=EDGE_CURVE('',#760,#761,#58,.T.);
#605=EDGE_CURVE('',#760,#762,#59,.T.);
#606=EDGE_CURVE('',#762,#763,#60,.T.);
#607=EDGE_CURVE('',#763,#761,#61,.F.);
#608=EDGE_CURVE('',#764,#765,#840,.T.);
#609=EDGE_CURVE('',#764,#766,#62,.T.);
#610=EDGE_CURVE('',#766,#767,#841,.T.);
#611=EDGE_CURVE('',#767,#765,#63,.T.);
#612=EDGE_CURVE('',#747,#752,#842,.F.);
#613=EDGE_CURVE('',#753,#746,#843,.F.);
#614=EDGE_CURVE('',#757,#760,#844,.F.);
#615=EDGE_CURVE('',#762,#759,#845,.F.);
#616=EDGE_CURVE('',#751,#756,#846,.F.);
#617=EDGE_CURVE('',#758,#750,#847,.F.);
#618=EDGE_CURVE('',#761,#748,#848,.F.);
#619=EDGE_CURVE('',#749,#763,#849,.F.);
#620=EDGE_CURVE('',#768,#769,#64,.T.);
#621=EDGE_CURVE('',#769,#770,#65,.T.);
#622=EDGE_CURVE('',#771,#770,#66,.T.);
#623=EDGE_CURVE('',#771,#768,#67,.F.);
#624=EDGE_CURVE('',#772,#773,#68,.F.);
#625=EDGE_CURVE('',#773,#774,#69,.T.);
#626=EDGE_CURVE('',#774,#775,#70,.T.);
#627=EDGE_CURVE('',#775,#776,#71,.F.);
#628=EDGE_CURVE('',#776,#777,#72,.T.);
#629=EDGE_CURVE('',#777,#772,#73,.T.);
#630=EDGE_CURVE('',#778,#779,#74,.T.);
#631=EDGE_CURVE('',#778,#780,#75,.T.);
#632=EDGE_CURVE('',#780,#781,#76,.T.);
#633=EDGE_CURVE('',#781,#779,#77,.F.);
#634=EDGE_CURVE('',#782,#755,#78,.T.);
#635=EDGE_CURVE('',#782,#783,#79,.T.);
#636=EDGE_CURVE('',#783,#784,#850,.T.);
#637=EDGE_CURVE('',#784,#785,#80,.T.);
#638=EDGE_CURVE('',#785,#786,#851,.T.);
#639=EDGE_CURVE('',#787,#786,#81,.T.);
#640=EDGE_CURVE('',#787,#788,#852,.T.);
#641=EDGE_CURVE('',#789,#788,#82,.T.);
#642=EDGE_CURVE('',#789,#771,#853,.T.);
#643=EDGE_CURVE('',#770,#754,#83,.T.);
#644=EDGE_CURVE('',#790,#791,#84,.F.);
#645=EDGE_CURVE('',#791,#792,#85,.T.);
#646=EDGE_CURVE('',#792,#793,#86,.T.);
#647=EDGE_CURVE('',#793,#794,#87,.F.);
#648=EDGE_CURVE('',#795,#794,#88,.T.);
#649=EDGE_CURVE('',#795,#790,#89,.T.);
#650=EDGE_CURVE('',#796,#797,#90,.F.);
#651=EDGE_CURVE('',#797,#798,#91,.T.);
#652=EDGE_CURVE('',#798,#799,#92,.T.);
#653=EDGE_CURVE('',#799,#800,#93,.F.);
#654=EDGE_CURVE('',#801,#800,#94,.T.);
#655=EDGE_CURVE('',#801,#796,#95,.T.);
#656=EDGE_CURVE('',#802,#803,#96,.F.);
#657=EDGE_CURVE('',#803,#804,#97,.T.);
#658=EDGE_CURVE('',#804,#805,#98,.T.);
#659=EDGE_CURVE('',#805,#806,#99,.F.);
#660=EDGE_CURVE('',#806,#807,#100,.T.);
#661=EDGE_CURVE('',#807,#802,#101,.T.);
#662=EDGE_CURVE('',#800,#807,#854,.T.);
#663=EDGE_CURVE('',#806,#777,#855,.T.);
#664=EDGE_CURVE('',#776,#795,#856,.T.);
#665=EDGE_CURVE('',#794,#801,#857,.T.);
#666=EDGE_CURVE('',#798,#803,#858,.F.);
#667=EDGE_CURVE('',#804,#773,#859,.F.);
#668=EDGE_CURVE('',#774,#791,#860,.F.);
#669=EDGE_CURVE('',#792,#797,#861,.F.);
#670=EDGE_CURVE('',#808,#782,#102,.T.);
#671=EDGE_CURVE('',#808,#809,#103,.T.);
#672=EDGE_CURVE('',#809,#783,#104,.T.);
#673=EDGE_CURVE('',#788,#810,#105,.F.);
#674=EDGE_CURVE('',#811,#810,#106,.T.);
#675=EDGE_CURVE('',#811,#789,#107,.T.);
#676=EDGE_CURVE('',#812,#813,#108,.T.);
#677=EDGE_CURVE('',#812,#787,#109,.T.);
#678=EDGE_CURVE('',#786,#813,#110,.F.);
#679=EDGE_CURVE('',#814,#815,#111,.T.);
#680=EDGE_CURVE('',#815,#785,#112,.T.);
#681=EDGE_CURVE('',#784,#814,#113,.F.);
#682=EDGE_CURVE('',#816,#817,#114,.T.);
#683=EDGE_CURVE('',#817,#769,#115,.T.);
#684=EDGE_CURVE('',#768,#811,#862,.T.);
#685=EDGE_CURVE('',#810,#812,#863,.T.);
#686=EDGE_CURVE('',#813,#815,#864,.T.);
#687=EDGE_CURVE('',#814,#809,#865,.T.);
#688=EDGE_CURVE('',#808,#816,#116,.T.);
#689=EDGE_CURVE('',#818,#819,#117,.T.);
#690=EDGE_CURVE('',#819,#820,#118,.F.);
#691=EDGE_CURVE('',#754,#820,#119,.T.);
#692=EDGE_CURVE('',#817,#821,#866,.F.);
#693=EDGE_CURVE('',#821,#818,#120,.T.);
#694=EDGE_CURVE('',#755,#822,#121,.T.);
#695=EDGE_CURVE('',#822,#823,#122,.T.);
#696=EDGE_CURVE('',#824,#823,#123,.T.);
#697=EDGE_CURVE('',#824,#825,#124,.T.);
#698=EDGE_CURVE('',#825,#816,#867,.T.);
#699=EDGE_CURVE('',#823,#819,#125,.F.);
#700=EDGE_CURVE('',#818,#824,#126,.T.);
#701=EDGE_CURVE('',#821,#825,#127,.F.);
#702=EDGE_CURVE('',#779,#822,#868,.F.);
#703=EDGE_CURVE('',#823,#781,#16,.F.);
#704=EDGE_CURVE('',#819,#780,#17,.F.);
#705=EDGE_CURVE('',#820,#778,#869,.F.);
#706=EDGE_CURVE('',#745,#765,#128,.T.);
#707=EDGE_CURVE('',#826,#745,#129,.T.);
#708=EDGE_CURVE('',#826,#827,#130,.T.);
#709=EDGE_CURVE('',#827,#765,#131,.T.);
#710=EDGE_CURVE('',#828,#744,#132,.T.);
#711=EDGE_CURVE('',#826,#828,#870,.T.);
#712=EDGE_CURVE('',#744,#741,#133,.T.);
#713=EDGE_CURVE('',#829,#741,#134,.T.);
#714=EDGE_CURVE('',#828,#829,#135,.T.);
#715=EDGE_CURVE('',#830,#740,#136,.T.);
#716=EDGE_CURVE('',#829,#830,#871,.T.);
#717=EDGE_CURVE('',#740,#737,#137,.T.);
#718=EDGE_CURVE('',#831,#737,#138,.T.);
#719=EDGE_CURVE('',#830,#831,#139,.T.);
#720=EDGE_CURVE('',#832,#736,#140,.T.);
#721=EDGE_CURVE('',#831,#832,#872,.T.);
#722=EDGE_CURVE('',#764,#736,#141,.T.);
#723=EDGE_CURVE('',#833,#764,#142,.T.);
#724=EDGE_CURVE('',#833,#832,#143,.T.);
#725=EDGE_CURVE('',#833,#827,#873,.T.);
#726=EDGE_CURVE('',#774,#743,#144,.T.);
#727=EDGE_CURVE('',#738,#773,#145,.T.);
#728=EDGE_CURVE('',#739,#804,#146,.T.);
#729=EDGE_CURVE('',#791,#742,#147,.T.);
#730=EDGE_CURVE('',#734,#803,#148,.T.);
#731=EDGE_CURVE('',#792,#767,#149,.T.);
#732=EDGE_CURVE('',#735,#798,#150,.T.);
#733=EDGE_CURVE('',#797,#766,#151,.T.);
#734=VERTEX_POINT('',#1518);
#735=VERTEX_POINT('',#1519);
#736=VERTEX_POINT('',#1521);
#737=VERTEX_POINT('',#1523);
#738=VERTEX_POINT('',#1527);
#739=VERTEX_POINT('',#1528);
#740=VERTEX_POINT('',#1530);
#741=VERTEX_POINT('',#1532);
#742=VERTEX_POINT('',#1536);
#743=VERTEX_POINT('',#1537);
#744=VERTEX_POINT('',#1539);
#745=VERTEX_POINT('',#1541);
#746=VERTEX_POINT('',#1545);
#747=VERTEX_POINT('',#1546);
#748=VERTEX_POINT('',#1548);
#749=VERTEX_POINT('',#1550);
#750=VERTEX_POINT('',#1554);
#751=VERTEX_POINT('',#1555);
#752=VERTEX_POINT('',#1557);
#753=VERTEX_POINT('',#1559);
#754=VERTEX_POINT('',#1561);
#755=VERTEX_POINT('',#1563);
#756=VERTEX_POINT('',#1567);
#757=VERTEX_POINT('',#1568);
#758=VERTEX_POINT('',#1570);
#759=VERTEX_POINT('',#1572);
#760=VERTEX_POINT('',#1576);
#761=VERTEX_POINT('',#1577);
#762=VERTEX_POINT('',#1579);
#763=VERTEX_POINT('',#1581);
#764=VERTEX_POINT('',#1585);
#765=VERTEX_POINT('',#1586);
#766=VERTEX_POINT('',#1588);
#767=VERTEX_POINT('',#1590);
#768=VERTEX_POINT('',#1606);
#769=VERTEX_POINT('',#1607);
#770=VERTEX_POINT('',#1609);
#771=VERTEX_POINT('',#1611);
#772=VERTEX_POINT('',#1615);
#773=VERTEX_POINT('',#1616);
#774=VERTEX_POINT('',#1618);
#775=VERTEX_POINT('',#1620);
#776=VERTEX_POINT('',#1622);
#777=VERTEX_POINT('',#1624);
#778=VERTEX_POINT('',#1627);
#779=VERTEX_POINT('',#1628);
#780=VERTEX_POINT('',#1630);
#781=VERTEX_POINT('',#1632);
#782=VERTEX_POINT('',#1636);
#783=VERTEX_POINT('',#1638);
#784=VERTEX_POINT('',#1640);
#785=VERTEX_POINT('',#1642);
#786=VERTEX_POINT('',#1644);
#787=VERTEX_POINT('',#1646);
#788=VERTEX_POINT('',#1648);
#789=VERTEX_POINT('',#1650);
#790=VERTEX_POINT('',#1655);
#791=VERTEX_POINT('',#1656);
#792=VERTEX_POINT('',#1658);
#793=VERTEX_POINT('',#1660);
#794=VERTEX_POINT('',#1662);
#795=VERTEX_POINT('',#1664);
#796=VERTEX_POINT('',#1668);
#797=VERTEX_POINT('',#1669);
#798=VERTEX_POINT('',#1671);
#799=VERTEX_POINT('',#1673);
#800=VERTEX_POINT('',#1675);
#801=VERTEX_POINT('',#1677);
#802=VERTEX_POINT('',#1681);
#803=VERTEX_POINT('',#1682);
#804=VERTEX_POINT('',#1684);
#805=VERTEX_POINT('',#1686);
#806=VERTEX_POINT('',#1688);
#807=VERTEX_POINT('',#1690);
#808=VERTEX_POINT('',#1707);
#809=VERTEX_POINT('',#1709);
#810=VERTEX_POINT('',#1713);
#811=VERTEX_POINT('',#1715);
#812=VERTEX_POINT('',#1719);
#813=VERTEX_POINT('',#1720);
#814=VERTEX_POINT('',#1725);
#815=VERTEX_POINT('',#1726);
#816=VERTEX_POINT('',#1731);
#817=VERTEX_POINT('',#1732);
#818=VERTEX_POINT('',#1745);
#819=VERTEX_POINT('',#1746);
#820=VERTEX_POINT('',#1748);
#821=VERTEX_POINT('',#1751);
#822=VERTEX_POINT('',#1755);
#823=VERTEX_POINT('',#1757);
#824=VERTEX_POINT('',#1759);
#825=VERTEX_POINT('',#1761);
#826=VERTEX_POINT('',#1780);
#827=VERTEX_POINT('',#1782);
#828=VERTEX_POINT('',#1786);
#829=VERTEX_POINT('',#1791);
#830=VERTEX_POINT('',#1795);
#831=VERTEX_POINT('',#1800);
#832=VERTEX_POINT('',#1804);
#833=VERTEX_POINT('',#1809);
#834=CIRCLE('',#1100,0.015);
#835=CIRCLE('',#1101,0.02);
#836=CIRCLE('',#1103,0.015);
#837=CIRCLE('',#1104,0.02);
#838=CIRCLE('',#1106,0.015);
#839=CIRCLE('',#1107,0.02);
#840=CIRCLE('',#1113,0.02);
#841=CIRCLE('',#1114,0.015);
#842=CIRCLE('',#1116,0.02);
#843=CIRCLE('',#1117,0.02);
#844=CIRCLE('',#1119,0.02);
#845=CIRCLE('',#1120,0.02);
#846=CIRCLE('',#1122,0.02);
#847=CIRCLE('',#1123,0.02);
#848=CIRCLE('',#1125,0.02);
#849=CIRCLE('',#1126,0.02);
#850=CIRCLE('',#1130,0.003);
#851=CIRCLE('',#1131,0.003);
#852=CIRCLE('',#1132,0.003);
#853=CIRCLE('',#1133,0.003);
#854=CIRCLE('',#1138,0.02);
#855=CIRCLE('',#1139,0.02);
#856=CIRCLE('',#1140,0.02);
#857=CIRCLE('',#1141,0.02);
#858=CIRCLE('',#1143,0.02);
#859=CIRCLE('',#1145,0.02);
#860=CIRCLE('',#1147,0.02);
#861=CIRCLE('',#1149,0.02);
#862=CIRCLE('',#1155,0.003);
#863=CIRCLE('',#1156,0.003);
#864=CIRCLE('',#1157,0.003);
#865=CIRCLE('',#1158,0.003);
#866=CIRCLE('',#1164,0.002);
#867=CIRCLE('',#1166,0.002);
#868=CIRCLE('',#1171,0.002);
#869=CIRCLE('',#1176,0.002);
#870=CIRCLE('',#1180,0.02);
#871=CIRCLE('',#1183,0.02);
#872=CIRCLE('',#1186,0.02);
#873=CIRCLE('',#1189,0.02);
#874=EDGE_LOOP('',(#266,#267,#268,#269));
#875=EDGE_LOOP('',(#270,#271,#272,#273));
#876=EDGE_LOOP('',(#274,#275,#276,#277));
#877=EDGE_LOOP('',(#278,#279,#280,#281));
#878=EDGE_LOOP('',(#282,#283,#284,#285,#286,#287));
#879=EDGE_LOOP('',(#288,#289,#290,#291));
#880=EDGE_LOOP('',(#292,#293,#294,#295));
#881=EDGE_LOOP('',(#296,#297,#298,#299));
#882=EDGE_LOOP('',(#300,#301,#302,#303));
#883=EDGE_LOOP('',(#304,#305,#306,#307));
#884=EDGE_LOOP('',(#308,#309,#310,#311));
#885=EDGE_LOOP('',(#312,#313,#314,#315));
#886=EDGE_LOOP('',(#316,#317,#318,#319));
#887=EDGE_LOOP('',(#320,#321,#322,#323,#324,#325));
#888=EDGE_LOOP('',(#326,#327,#328,#329));
#889=EDGE_LOOP('',(#330,#331,#332,#333,#334,#335,#336,#337,#338,#339,#340,
#341,#342,#343,#344,#345,#346,#347,#348,#349));
#890=EDGE_LOOP('',(#350,#351,#352,#353,#354,#355));
#891=EDGE_LOOP('',(#356,#357,#358,#359,#360,#361));
#892=EDGE_LOOP('',(#362,#363,#364,#365,#366,#367));
#893=EDGE_LOOP('',(#368,#369,#370,#371,#372,#373,#374,#375));
#894=EDGE_LOOP('',(#376,#377,#378,#379,#380,#381));
#895=EDGE_LOOP('',(#382,#383,#384,#385,#386,#387));
#896=EDGE_LOOP('',(#388,#389,#390,#391,#392,#393));
#897=EDGE_LOOP('',(#394,#395,#396,#397,#398,#399));
#898=EDGE_LOOP('',(#400,#401,#402,#403));
#899=EDGE_LOOP('',(#404,#405,#406,#407));
#900=EDGE_LOOP('',(#408,#409,#410,#411));
#901=EDGE_LOOP('',(#412,#413,#414,#415));
#902=EDGE_LOOP('',(#416,#417,#418,#419,#420,#421,#422,#423,#424,#425,#426,
#427));
#903=EDGE_LOOP('',(#428,#429,#430,#431));
#904=EDGE_LOOP('',(#432,#433,#434,#435));
#905=EDGE_LOOP('',(#436,#437,#438,#439));
#906=EDGE_LOOP('',(#440,#441,#442,#443));
#907=EDGE_LOOP('',(#444,#445,#446,#447,#448,#449,#450,#451));
#908=EDGE_LOOP('',(#452,#453,#454,#455,#456,#457,#458,#459));
#909=EDGE_LOOP('',(#460,#461,#462,#463));
#910=EDGE_LOOP('',(#464,#465,#466,#467));
#911=EDGE_LOOP('',(#468,#469,#470,#471));
#912=EDGE_LOOP('',(#472,#473,#474,#475));
#913=EDGE_LOOP('',(#476,#477,#478,#479));
#914=EDGE_LOOP('',(#480,#481,#482,#483));
#915=EDGE_LOOP('',(#484,#485,#486,#487,#488,#489));
#916=EDGE_LOOP('',(#490,#491,#492,#493));
#917=EDGE_LOOP('',(#494,#495,#496,#497));
#918=EDGE_LOOP('',(#498,#499,#500,#501));
#919=EDGE_LOOP('',(#502,#503,#504,#505));
#920=EDGE_LOOP('',(#506,#507,#508,#509));
#921=EDGE_LOOP('',(#510,#511,#512,#513));
#922=EDGE_LOOP('',(#514,#515,#516,#517));
#923=EDGE_LOOP('',(#518,#519,#520,#521));
#924=EDGE_LOOP('',(#522,#523,#524,#525,#526,#527,#528,#529));
#925=EDGE_LOOP('',(#530,#531,#532,#533,#534,#535,#536,#537));
#926=EDGE_LOOP('',(#538,#539,#540,#541,#542,#543));
#927=EDGE_LOOP('',(#544,#545,#546,#547));
#928=EDGE_LOOP('',(#548,#549,#550,#551));
#929=EDGE_LOOP('',(#552,#553,#554,#555,#556,#557));
#930=EDGE_LOOP('',(#558,#559,#560,#561,#562,#563));
#931=EDGE_LOOP('',(#564,#565,#566,#567));
#932=EDGE_LOOP('',(#568,#569,#570,#571));
#933=EDGE_LOOP('',(#572,#573,#574,#575,#576,#577));
#934=FACE_BOUND('',#874,.T.);
#935=FACE_BOUND('',#875,.T.);
#936=FACE_BOUND('',#876,.T.);
#937=FACE_BOUND('',#877,.T.);
#938=FACE_BOUND('',#878,.T.);
#939=FACE_BOUND('',#879,.T.);
#940=FACE_BOUND('',#880,.T.);
#941=FACE_BOUND('',#881,.T.);
#942=FACE_BOUND('',#882,.T.);
#943=FACE_BOUND('',#883,.T.);
#944=FACE_BOUND('',#884,.T.);
#945=FACE_BOUND('',#885,.T.);
#946=FACE_BOUND('',#886,.T.);
#947=FACE_BOUND('',#887,.T.);
#948=FACE_BOUND('',#888,.T.);
#949=FACE_BOUND('',#889,.T.);
#950=FACE_BOUND('',#890,.T.);
#951=FACE_BOUND('',#891,.T.);
#952=FACE_BOUND('',#892,.T.);
#953=FACE_BOUND('',#893,.T.);
#954=FACE_BOUND('',#894,.T.);
#955=FACE_BOUND('',#895,.T.);
#956=FACE_BOUND('',#896,.T.);
#957=FACE_BOUND('',#897,.T.);
#958=FACE_BOUND('',#898,.T.);
#959=FACE_BOUND('',#899,.T.);
#960=FACE_BOUND('',#900,.T.);
#961=FACE_BOUND('',#901,.T.);
#962=FACE_BOUND('',#902,.T.);
#963=FACE_BOUND('',#903,.T.);
#964=FACE_BOUND('',#904,.T.);
#965=FACE_BOUND('',#905,.T.);
#966=FACE_BOUND('',#906,.T.);
#967=FACE_BOUND('',#907,.T.);
#968=FACE_BOUND('',#908,.T.);
#969=FACE_BOUND('',#909,.T.);
#970=FACE_BOUND('',#910,.T.);
#971=FACE_BOUND('',#911,.T.);
#972=FACE_BOUND('',#912,.T.);
#973=FACE_BOUND('',#913,.T.);
#974=FACE_BOUND('',#914,.T.);
#975=FACE_BOUND('',#915,.T.);
#976=FACE_BOUND('',#916,.T.);
#977=FACE_BOUND('',#917,.T.);
#978=FACE_BOUND('',#918,.T.);
#979=FACE_BOUND('',#919,.T.);
#980=FACE_BOUND('',#920,.T.);
#981=FACE_BOUND('',#921,.T.);
#982=FACE_BOUND('',#922,.T.);
#983=FACE_BOUND('',#923,.T.);
#984=FACE_BOUND('',#924,.T.);
#985=FACE_BOUND('',#925,.T.);
#986=FACE_BOUND('',#926,.T.);
#987=FACE_BOUND('',#927,.T.);
#988=FACE_BOUND('',#928,.T.);
#989=FACE_BOUND('',#929,.T.);
#990=FACE_BOUND('',#930,.T.);
#991=FACE_BOUND('',#931,.T.);
#992=FACE_BOUND('',#932,.T.);
#993=FACE_BOUND('',#933,.T.);
#994=PLANE('',#1099);
#995=PLANE('',#1102);
#996=PLANE('',#1105);
#997=PLANE('',#1108);
#998=PLANE('',#1109);
#999=PLANE('',#1110);
#1000=PLANE('',#1111);
#1001=PLANE('',#1112);
#1002=PLANE('',#1127);
#1003=PLANE('',#1128);
#1004=PLANE('',#1129);
#1005=PLANE('',#1134);
#1006=PLANE('',#1135);
#1007=PLANE('',#1136);
#1008=PLANE('',#1137);
#1009=PLANE('',#1150);
#1010=PLANE('',#1151);
#1011=PLANE('',#1152);
#1012=PLANE('',#1153);
#1013=PLANE('',#1154);
#1014=PLANE('',#1163);
#1015=PLANE('',#1165);
#1016=PLANE('',#1167);
#1017=PLANE('',#1168);
#1018=PLANE('',#1177);
#1019=PLANE('',#1178);
#1020=PLANE('',#1181);
#1021=PLANE('',#1184);
#1022=PLANE('',#1187);
#1023=PLANE('',#1190);
#1024=PLANE('',#1191);
#1025=PLANE('',#1194);
#1026=PLANE('',#1195);
#1027=PLANE('',#1198);
#1028=ADVANCED_FACE('',(#934),#994,.T.);
#1029=ADVANCED_FACE('',(#935),#995,.T.);
#1030=ADVANCED_FACE('',(#936),#996,.T.);
#1031=ADVANCED_FACE('',(#937),#997,.T.);
#1032=ADVANCED_FACE('',(#938),#998,.T.);
#1033=ADVANCED_FACE('',(#939),#999,.F.);
#1034=ADVANCED_FACE('',(#940),#1000,.F.);
#1035=ADVANCED_FACE('',(#941),#1001,.T.);
#1036=ADVANCED_FACE('',(#942),#18,.F.);
#1037=ADVANCED_FACE('',(#943),#19,.F.);
#1038=ADVANCED_FACE('',(#944),#20,.F.);
#1039=ADVANCED_FACE('',(#945),#21,.F.);
#1040=ADVANCED_FACE('',(#946),#1002,.T.);
#1041=ADVANCED_FACE('',(#947,#948),#1003,.T.);
#1042=ADVANCED_FACE('',(#949),#1004,.F.);
#1043=ADVANCED_FACE('',(#950),#1005,.F.);
#1044=ADVANCED_FACE('',(#951),#1006,.F.);
#1045=ADVANCED_FACE('',(#952),#1007,.T.);
#1046=ADVANCED_FACE('',(#953),#1008,.T.);
#1047=ADVANCED_FACE('',(#954),#22,.T.);
#1048=ADVANCED_FACE('',(#955),#23,.T.);
#1049=ADVANCED_FACE('',(#956),#24,.T.);
#1050=ADVANCED_FACE('',(#957),#25,.T.);
#1051=ADVANCED_FACE('',(#958),#1009,.T.);
#1052=ADVANCED_FACE('',(#959),#1010,.F.);
#1053=ADVANCED_FACE('',(#960),#1011,.F.);
#1054=ADVANCED_FACE('',(#961),#1012,.T.);
#1055=ADVANCED_FACE('',(#962),#1013,.T.);
#1056=ADVANCED_FACE('',(#963),#26,.F.);
#1057=ADVANCED_FACE('',(#964),#27,.F.);
#1058=ADVANCED_FACE('',(#965),#28,.F.);
#1059=ADVANCED_FACE('',(#966),#29,.F.);
#1060=ADVANCED_FACE('',(#967),#1014,.T.);
#1061=ADVANCED_FACE('',(#968),#1015,.F.);
#1062=ADVANCED_FACE('',(#969),#1016,.T.);
#1063=ADVANCED_FACE('',(#970),#1017,.T.);
#1064=ADVANCED_FACE('',(#971),#30,.T.);
#1065=ADVANCED_FACE('',(#972),#31,.T.);
#1066=ADVANCED_FACE('',(#973),#32,.T.);
#1067=ADVANCED_FACE('',(#974),#33,.T.);
#1068=ADVANCED_FACE('',(#975),#1018,.F.);
#1069=ADVANCED_FACE('',(#976),#1019,.T.);
#1070=ADVANCED_FACE('',(#977),#34,.F.);
#1071=ADVANCED_FACE('',(#978),#1020,.F.);
#1072=ADVANCED_FACE('',(#979),#35,.F.);
#1073=ADVANCED_FACE('',(#980),#1021,.F.);
#1074=ADVANCED_FACE('',(#981),#36,.F.);
#1075=ADVANCED_FACE('',(#982),#1022,.T.);
#1076=ADVANCED_FACE('',(#983),#37,.F.);
#1077=ADVANCED_FACE('',(#984,#985),#1023,.T.);
#1078=ADVANCED_FACE('',(#986),#1024,.F.);
#1079=ADVANCED_FACE('',(#987),#12,.T.);
#1080=ADVANCED_FACE('',(#988),#13,.T.);
#1081=ADVANCED_FACE('',(#989),#1025,.F.);
#1082=ADVANCED_FACE('',(#990),#1026,.T.);
#1083=ADVANCED_FACE('',(#991),#14,.T.);
#1084=ADVANCED_FACE('',(#992),#15,.T.);
#1085=ADVANCED_FACE('',(#993),#1027,.T.);
#1086=CLOSED_SHELL('',(#1028,#1029,#1030,#1031,#1032,#1033,#1034,#1035,
#1036,#1037,#1038,#1039,#1040,#1041,#1042,#1043,#1044,#1045,#1046,#1047,
#1048,#1049,#1050,#1051,#1052,#1053,#1054,#1055,#1056,#1057,#1058,#1059,
#1060,#1061,#1062,#1063,#1064,#1065,#1066,#1067,#1068,#1069,#1070,#1071,
#1072,#1073,#1074,#1075,#1076,#1077,#1078,#1079,#1080,#1081,#1082,#1083,
#1084,#1085));
#1087=STYLED_ITEM('',(#1088),#1095);
#1088=PRESENTATION_STYLE_ASSIGNMENT((#1089));
#1089=SURFACE_STYLE_USAGE(.BOTH.,#1090);
#1090=SURFACE_SIDE_STYLE('',(#1091));
#1091=SURFACE_STYLE_FILL_AREA(#1092);
#1092=FILL_AREA_STYLE('',(#1093));
#1093=FILL_AREA_STYLE_COLOUR('',#1094);
#1094=COLOUR_RGB('',0.615686274509804,0.811764705882353,0.929411764705882);
#1095=MANIFOLD_SOLID_BREP('Part 1',#1086);
#1096=SHAPE_DEFINITION_REPRESENTATION(#1836,#1097);
#1097=SHAPE_REPRESENTATION('Part 1',(#1098),#1831);
#1098=AXIS2_PLACEMENT_3D('',#1515,#1199,#1200);
#1099=AXIS2_PLACEMENT_3D('',#1516,#1201,#1202);
#1100=AXIS2_PLACEMENT_3D('',#1517,#1203,#1204);
#1101=AXIS2_PLACEMENT_3D('',#1522,#1206,#1207);
#1102=AXIS2_PLACEMENT_3D('',#1525,#1209,#1210);
#1103=AXIS2_PLACEMENT_3D('',#1526,#1211,#1212);
#1104=AXIS2_PLACEMENT_3D('',#1531,#1214,#1215);
#1105=AXIS2_PLACEMENT_3D('',#1534,#1217,#1218);
#1106=AXIS2_PLACEMENT_3D('',#1535,#1219,#1220);
#1107=AXIS2_PLACEMENT_3D('',#1540,#1222,#1223);
#1108=AXIS2_PLACEMENT_3D('',#1543,#1225,#1226);
#1109=AXIS2_PLACEMENT_3D('',#1552,#1231,#1232);
#1110=AXIS2_PLACEMENT_3D('',#1565,#1239,#1240);
#1111=AXIS2_PLACEMENT_3D('',#1574,#1245,#1246);
#1112=AXIS2_PLACEMENT_3D('',#1583,#1251,#1252);
#1113=AXIS2_PLACEMENT_3D('',#1584,#1253,#1254);
#1114=AXIS2_PLACEMENT_3D('',#1589,#1256,#1257);
#1115=AXIS2_PLACEMENT_3D('',#1592,#1259,#1260);
#1116=AXIS2_PLACEMENT_3D('',#1593,#1261,#1262);
#1117=AXIS2_PLACEMENT_3D('',#1594,#1263,#1264);
#1118=AXIS2_PLACEMENT_3D('',#1595,#1265,#1266);
#1119=AXIS2_PLACEMENT_3D('',#1596,#1267,#1268);
#1120=AXIS2_PLACEMENT_3D('',#1597,#1269,#1270);
#1121=AXIS2_PLACEMENT_3D('',#1598,#1271,#1272);
#1122=AXIS2_PLACEMENT_3D('',#1599,#1273,#1274);
#1123=AXIS2_PLACEMENT_3D('',#1600,#1275,#1276);
#1124=AXIS2_PLACEMENT_3D('',#1601,#1277,#1278);
#1125=AXIS2_PLACEMENT_3D('',#1602,#1279,#1280);
#1126=AXIS2_PLACEMENT_3D('',#1603,#1281,#1282);
#1127=AXIS2_PLACEMENT_3D('',#1604,#1283,#1284);
#1128=AXIS2_PLACEMENT_3D('',#1613,#1289,#1290);
#1129=AXIS2_PLACEMENT_3D('',#1634,#1301,#1302);
#1130=AXIS2_PLACEMENT_3D('',#1639,#1305,#1306);
#1131=AXIS2_PLACEMENT_3D('',#1643,#1308,#1309);
#1132=AXIS2_PLACEMENT_3D('',#1647,#1311,#1312);
#1133=AXIS2_PLACEMENT_3D('',#1651,#1314,#1315);
#1134=AXIS2_PLACEMENT_3D('',#1653,#1317,#1318);
#1135=AXIS2_PLACEMENT_3D('',#1666,#1325,#1326);
#1136=AXIS2_PLACEMENT_3D('',#1679,#1333,#1334);
#1137=AXIS2_PLACEMENT_3D('',#1692,#1341,#1342);
#1138=AXIS2_PLACEMENT_3D('',#1693,#1343,#1344);
#1139=AXIS2_PLACEMENT_3D('',#1694,#1345,#1346);
#1140=AXIS2_PLACEMENT_3D('',#1695,#1347,#1348);
#1141=AXIS2_PLACEMENT_3D('',#1696,#1349,#1350);
#1142=AXIS2_PLACEMENT_3D('',#1697,#1351,#1352);
#1143=AXIS2_PLACEMENT_3D('',#1698,#1353,#1354);
#1144=AXIS2_PLACEMENT_3D('',#1699,#1355,#1356);
#1145=AXIS2_PLACEMENT_3D('',#1700,#1357,#1358);
#1146=AXIS2_PLACEMENT_3D('',#1701,#1359,#1360);
#1147=AXIS2_PLACEMENT_3D('',#1702,#1361,#1362);
#1148=AXIS2_PLACEMENT_3D('',#1703,#1363,#1364);
#1149=AXIS2_PLACEMENT_3D('',#1704,#1365,#1366);
#1150=AXIS2_PLACEMENT_3D('',#1705,#1367,#1368);
#1151=AXIS2_PLACEMENT_3D('',#1711,#1372,#1373);
#1152=AXIS2_PLACEMENT_3D('',#1717,#1377,#1378);
#1153=AXIS2_PLACEMENT_3D('',#1723,#1382,#1383);
#1154=AXIS2_PLACEMENT_3D('',#1729,#1387,#1388);
#1155=AXIS2_PLACEMENT_3D('',#1734,#1391,#1392);
#1156=AXIS2_PLACEMENT_3D('',#1735,#1393,#1394);
#1157=AXIS2_PLACEMENT_3D('',#1736,#1395,#1396);
#1158=AXIS2_PLACEMENT_3D('',#1737,#1397,#1398);
#1159=AXIS2_PLACEMENT_3D('',#1739,#1400,#1401);
#1160=AXIS2_PLACEMENT_3D('',#1740,#1402,#1403);
#1161=AXIS2_PLACEMENT_3D('',#1741,#1404,#1405);
#1162=AXIS2_PLACEMENT_3D('',#1742,#1406,#1407);
#1163=AXIS2_PLACEMENT_3D('',#1743,#1408,#1409);
#1164=AXIS2_PLACEMENT_3D('',#1750,#1413,#1414);
#1165=AXIS2_PLACEMENT_3D('',#1753,#1416,#1417);
#1166=AXIS2_PLACEMENT_3D('',#1762,#1422,#1423);
#1167=AXIS2_PLACEMENT_3D('',#1763,#1424,#1425);
#1168=AXIS2_PLACEMENT_3D('',#1766,#1428,#1429);
#1169=AXIS2_PLACEMENT_3D('',#1768,#1431,#1432);
#1170=AXIS2_PLACEMENT_3D('',#1769,#1433,#1434);
#1171=AXIS2_PLACEMENT_3D('',#1770,#1435,#1436);
#1172=AXIS2_PLACEMENT_3D('',#1771,#1437,#1438);
#1173=AXIS2_PLACEMENT_3D('',#1772,#1439,#1440);
#1174=AXIS2_PLACEMENT_3D('',#1773,#1441,#1442);
#1175=AXIS2_PLACEMENT_3D('',#1774,#1443,#1444);
#1176=AXIS2_PLACEMENT_3D('',#1775,#1445,#1446);
#1177=AXIS2_PLACEMENT_3D('',#1776,#1447,#1448);
#1178=AXIS2_PLACEMENT_3D('',#1777,#1449,#1450);
#1179=AXIS2_PLACEMENT_3D('',#1784,#1455,#1456);
#1180=AXIS2_PLACEMENT_3D('',#1787,#1458,#1459);
#1181=AXIS2_PLACEMENT_3D('',#1788,#1460,#1461);
#1182=AXIS2_PLACEMENT_3D('',#1793,#1465,#1466);
#1183=AXIS2_PLACEMENT_3D('',#1796,#1468,#1469);
#1184=AXIS2_PLACEMENT_3D('',#1797,#1470,#1471);
#1185=AXIS2_PLACEMENT_3D('',#1802,#1475,#1476);
#1186=AXIS2_PLACEMENT_3D('',#1805,#1478,#1479);
#1187=AXIS2_PLACEMENT_3D('',#1806,#1480,#1481);
#1188=AXIS2_PLACEMENT_3D('',#1811,#1485,#1486);
#1189=AXIS2_PLACEMENT_3D('',#1812,#1487,#1488);
#1190=AXIS2_PLACEMENT_3D('',#1813,#1489,#1490);
#1191=AXIS2_PLACEMENT_3D('',#1814,#1491,#1492);
#1192=AXIS2_PLACEMENT_3D('',#1817,#1495,#1496);
#1193=AXIS2_PLACEMENT_3D('',#1819,#1498,#1499);
#1194=AXIS2_PLACEMENT_3D('',#1821,#1501,#1502);
#1195=AXIS2_PLACEMENT_3D('',#1823,#1504,#1505);
#1196=AXIS2_PLACEMENT_3D('',#1825,#1507,#1508);
#1197=AXIS2_PLACEMENT_3D('',#1827,#1510,#1511);
#1198=AXIS2_PLACEMENT_3D('',#1829,#1513,#1514);
#1199=DIRECTION('',(0.,0.,1.));
#1200=DIRECTION('',(1.,0.,0.));
#1201=DIRECTION('',(0.,0.,-1.));
#1202=DIRECTION('',(1.,0.,0.));
#1203=DIRECTION('',(0.,0.,-1.));
#1204=DIRECTION('',(-1.,0.,0.));
#1205=DIRECTION('',(0.,-1.,0.));
#1206=DIRECTION('',(0.,0.,-1.));
#1207=DIRECTION('',(-1.,0.,0.));
#1208=DIRECTION('',(1.,0.,0.));
#1209=DIRECTION('',(0.,0.,-1.));
#1210=DIRECTION('',(1.,0.,0.));
#1211=DIRECTION('',(0.,0.,-1.));
#1212=DIRECTION('',(-1.,0.,0.));
#1213=DIRECTION('',(1.,0.,0.));
#1214=DIRECTION('',(0.,0.,-1.));
#1215=DIRECTION('',(-1.,0.,0.));
#1216=DIRECTION('',(0.,1.,0.));
#1217=DIRECTION('',(0.,0.,-1.));
#1218=DIRECTION('',(1.,0.,0.));
#1219=DIRECTION('',(0.,0.,-1.));
#1220=DIRECTION('',(-1.,0.,0.));
#1221=DIRECTION('',(0.,1.,0.));
#1222=DIRECTION('',(0.,0.,-1.));
#1223=DIRECTION('',(-1.,0.,0.));
#1224=DIRECTION('',(-1.,0.,0.));
#1225=DIRECTION('',(0.,-1.,0.));
#1226=DIRECTION('',(0.,0.,-1.));
#1227=DIRECTION('',(0.,0.,1.));
#1228=DIRECTION('',(1.,0.,0.));
#1229=DIRECTION('',(0.,0.,1.));
#1230=DIRECTION('',(1.,0.,0.));
#1231=DIRECTION('',(1.,1.85037170770859E-16,0.));
#1232=DIRECTION('',(-1.85037170770859E-16,1.,0.));
#1233=DIRECTION('',(0.,0.,1.));
#1234=DIRECTION('',(-1.85037170770859E-16,1.,0.));
#1235=DIRECTION('',(0.,0.,1.));
#1236=DIRECTION('',(-1.85037170770859E-16,1.,0.));
#1237=DIRECTION('',(-1.85037170770859E-16,1.,0.));
#1238=DIRECTION('',(-1.85037170770859E-16,1.,0.));
#1239=DIRECTION('',(0.,-1.,0.));
#1240=DIRECTION('',(0.,0.,-1.));
#1241=DIRECTION('',(1.,0.,0.));
#1242=DIRECTION('',(0.,0.,1.));
#1243=DIRECTION('',(1.,0.,0.));
#1244=DIRECTION('',(0.,0.,1.));
#1245=DIRECTION('',(1.,1.85037170770859E-16,0.));
#1246=DIRECTION('',(-1.85037170770859E-16,1.,0.));
#1247=DIRECTION('',(-1.85037170770859E-16,1.,0.));
#1248=DIRECTION('',(0.,0.,1.));
#1249=DIRECTION('',(-1.85037170770859E-16,1.,0.));
#1250=DIRECTION('',(0.,0.,1.));
#1251=DIRECTION('',(0.,0.,-1.));
#1252=DIRECTION('',(1.,0.,0.));
#1253=DIRECTION('',(0.,0.,-1.));
#1254=DIRECTION('',(-1.,0.,0.));
#1255=DIRECTION('',(0.,-1.,0.));
#1256=DIRECTION('',(0.,0.,-1.));
#1257=DIRECTION('',(-1.,0.,0.));
#1258=DIRECTION('',(-1.,0.,0.));
#1259=DIRECTION('',(0.,0.,-1.));
#1260=DIRECTION('',(-1.,0.,0.));
#1261=DIRECTION('',(0.,0.,-1.));
#1262=DIRECTION('',(-1.,0.,0.));
#1263=DIRECTION('',(0.,0.,1.));
#1264=DIRECTION('',(1.,0.,0.));
#1265=DIRECTION('',(0.,0.,-1.));
#1266=DIRECTION('',(-1.,0.,0.));
#1267=DIRECTION('',(0.,0.,-1.));
#1268=DIRECTION('',(-1.,0.,0.));
#1269=DIRECTION('',(0.,0.,1.));
#1270=DIRECTION('',(1.,0.,0.));
#1271=DIRECTION('',(0.,0.,1.));
#1272=DIRECTION('',(1.,0.,0.));
#1273=DIRECTION('',(0.,0.,-1.));
#1274=DIRECTION('',(-1.,0.,0.));
#1275=DIRECTION('',(0.,0.,1.));
#1276=DIRECTION('',(1.,0.,0.));
#1277=DIRECTION('',(0.,0.,1.));
#1278=DIRECTION('',(1.,0.,0.));
#1279=DIRECTION('',(0.,0.,-1.));
#1280=DIRECTION('',(-1.,0.,0.));
#1281=DIRECTION('',(0.,0.,1.));
#1282=DIRECTION('',(1.,0.,0.));
#1283=DIRECTION('',(1.,0.,0.));
#1284=DIRECTION('',(0.,0.,-1.));
#1285=DIRECTION('',(0.,-1.,0.));
#1286=DIRECTION('',(0.,0.,-1.));
#1287=DIRECTION('',(0.,-1.,0.));
#1288=DIRECTION('',(0.,0.,-1.));
#1289=DIRECTION('',(-1.,0.,0.));
#1290=DIRECTION('',(0.,0.,1.));
#1291=DIRECTION('',(0.,0.,1.));
#1292=DIRECTION('',(0.,-1.,0.));
#1293=DIRECTION('',(0.,0.,1.));
#1294=DIRECTION('',(0.,0.,-1.));
#1295=DIRECTION('',(0.,1.,0.));
#1296=DIRECTION('',(0.,0.,-1.));
#1297=DIRECTION('',(0.,-1.,0.));
#1298=DIRECTION('',(0.,0.,1.));
#1299=DIRECTION('',(0.,-1.,0.));
#1300=DIRECTION('',(0.,0.,1.));
#1301=DIRECTION('',(0.,0.,1.));
#1302=DIRECTION('',(1.,0.,0.));
#1303=DIRECTION('',(-1.,1.38777878078145E-16,0.));
#1304=DIRECTION('',(0.,-1.,0.));
#1305=DIRECTION('',(0.,0.,1.));
#1306=DIRECTION('',(1.,0.,0.));
#1307=DIRECTION('',(1.,0.,0.));
#1308=DIRECTION('',(0.,0.,1.));
#1309=DIRECTION('',(1.,0.,0.));
#1310=DIRECTION('',(0.,-1.,0.));
#1311=DIRECTION('',(0.,0.,1.));
#1312=DIRECTION('',(1.,0.,0.));
#1313=DIRECTION('',(1.,0.,0.));
#1314=DIRECTION('',(0.,0.,1.));
#1315=DIRECTION('',(1.,0.,0.));
#1316=DIRECTION('',(-1.,1.38777878078145E-16,0.));
#1317=DIRECTION('',(0.,1.,0.));
#1318=DIRECTION('',(0.,0.,1.));
#1319=DIRECTION('',(0.,0.,1.));
#1320=DIRECTION('',(1.,0.,0.));
#1321=DIRECTION('',(0.,0.,1.));
#1322=DIRECTION('',(0.,0.,-1.));
#1323=DIRECTION('',(1.,0.,0.));
#1324=DIRECTION('',(0.,0.,-1.));
#1325=DIRECTION('',(-1.,0.,0.));
#1326=DIRECTION('',(0.,0.,1.));
#1327=DIRECTION('',(0.,0.,1.));
#1328=DIRECTION('',(0.,1.,0.));
#1329=DIRECTION('',(0.,0.,1.));
#1330=DIRECTION('',(0.,0.,-1.));
#1331=DIRECTION('',(0.,1.,0.));
#1332=DIRECTION('',(0.,0.,-1.));
#1333=DIRECTION('',(0.,1.,0.));
#1334=DIRECTION('',(0.,0.,1.));
#1335=DIRECTION('',(0.,0.,1.));
#1336=DIRECTION('',(-1.,0.,0.));
#1337=DIRECTION('',(0.,0.,1.));
#1338=DIRECTION('',(0.,0.,-1.));
#1339=DIRECTION('',(1.,0.,0.));
#1340=DIRECTION('',(0.,0.,-1.));
#1341=DIRECTION('',(0.,0.,1.));
#1342=DIRECTION('',(1.,0.,0.));
#1343=DIRECTION('',(0.,0.,1.));
#1344=DIRECTION('',(1.,0.,0.));
#1345=DIRECTION('',(0.,0.,1.));
#1346=DIRECTION('',(1.,0.,0.));
#1347=DIRECTION('',(0.,0.,1.));
#1348=DIRECTION('',(1.,0.,0.));
#1349=DIRECTION('',(0.,0.,1.));
#1350=DIRECTION('',(1.,0.,0.));
#1351=DIRECTION('',(0.,0.,1.));
#1352=DIRECTION('',(1.,0.,0.));
#1353=DIRECTION('',(0.,0.,-1.));
#1354=DIRECTION('',(-1.,0.,0.));
#1355=DIRECTION('',(0.,0.,-1.));
#1356=DIRECTION('',(-1.,0.,0.));
#1357=DIRECTION('',(0.,0.,-1.));
#1358=DIRECTION('',(-1.,0.,0.));
#1359=DIRECTION('',(0.,0.,1.));
#1360=DIRECTION('',(1.,0.,0.));
#1361=DIRECTION('',(0.,0.,-1.));
#1362=DIRECTION('',(-1.,0.,0.));
#1363=DIRECTION('',(0.,0.,-1.));
#1364=DIRECTION('',(-1.,0.,0.));
#1365=DIRECTION('',(0.,0.,-1.));
#1366=DIRECTION('',(-1.,0.,0.));
#1367=DIRECTION('',(1.,0.,0.));
#1368=DIRECTION('',(0.,0.,-1.));
#1369=DIRECTION('',(0.,0.,-1.));
#1370=DIRECTION('',(0.,-1.,0.));
#1371=DIRECTION('',(0.,0.,-1.));
#1372=DIRECTION('',(0.,1.,0.));
#1373=DIRECTION('',(0.,0.,1.));
#1374=DIRECTION('',(0.,0.,-1.));
#1375=DIRECTION('',(1.,0.,0.));
#1376=DIRECTION('',(0.,0.,-1.));
#1377=DIRECTION('',(1.,0.,0.));
#1378=DIRECTION('',(0.,0.,-1.));
#1379=DIRECTION('',(0.,-1.,0.));
#1380=DIRECTION('',(0.,0.,-1.));
#1381=DIRECTION('',(0.,0.,-1.));
#1382=DIRECTION('',(0.,1.,0.));
#1383=DIRECTION('',(0.,0.,1.));
#1384=DIRECTION('',(1.,0.,0.));
#1385=DIRECTION('',(0.,0.,-1.));
#1386=DIRECTION('',(0.,0.,-1.));
#1387=DIRECTION('',(0.,0.,-1.));
#1388=DIRECTION('',(1.,0.,0.));
#1389=DIRECTION('',(0.,1.,0.));
#1390=DIRECTION('',(-1.,1.38777878078145E-16,0.));
#1391=DIRECTION('',(0.,0.,-1.));
#1392=DIRECTION('',(-1.,0.,0.));
#1393=DIRECTION('',(0.,0.,-1.));
#1394=DIRECTION('',(-1.,0.,0.));
#1395=DIRECTION('',(0.,0.,-1.));
#1396=DIRECTION('',(-1.,0.,0.));
#1397=DIRECTION('',(0.,0.,-1.));
#1398=DIRECTION('',(-1.,0.,0.));
#1399=DIRECTION('',(1.,-1.38777878078145E-16,0.));
#1400=DIRECTION('',(0.,0.,1.));
#1401=DIRECTION('',(1.,0.,0.));
#1402=DIRECTION('',(0.,0.,-1.));
#1403=DIRECTION('',(-1.,0.,0.));
#1404=DIRECTION('',(0.,0.,-1.));
#1405=DIRECTION('',(-1.,0.,0.));
#1406=DIRECTION('',(0.,0.,1.));
#1407=DIRECTION('',(1.,0.,0.));
#1408=DIRECTION('',(-1.38777878078145E-16,-1.,0.));
#1409=DIRECTION('',(1.,-1.38777878078145E-16,0.));
#1410=DIRECTION('',(-1.,1.38777878078145E-16,0.));
#1411=DIRECTION('',(0.,0.,1.));
#1412=DIRECTION('',(-1.,1.38777878078145E-16,0.));
#1413=DIRECTION('',(-1.38777878078145E-16,-1.,0.));
#1414=DIRECTION('',(1.,-1.38777878078145E-16,0.));
#1415=DIRECTION('',(-0.707106781186548,9.8130778667736E-17,0.707106781186547));
#1416=DIRECTION('',(-1.38777878078145E-16,-1.,0.));
#1417=DIRECTION('',(1.,-1.38777878078145E-16,0.));
#1418=DIRECTION('',(-1.,1.38777878078145E-16,0.));
#1419=DIRECTION('',(0.,0.,1.));
#1420=DIRECTION('',(-1.,1.38777878078145E-16,0.));
#1421=DIRECTION('',(0.707106781186548,-9.8130778667736E-17,-0.707106781186547));
#1422=DIRECTION('',(-1.38777878078145E-16,-1.,0.));
#1423=DIRECTION('',(1.,-1.38777878078145E-16,0.));
#1424=DIRECTION('',(0.,0.,-1.));
#1425=DIRECTION('',(1.,0.,0.));
#1426=DIRECTION('',(0.,-1.,0.));
#1427=DIRECTION('',(0.,-1.,0.));
#1428=DIRECTION('',(-0.707106781186547,0.,-0.707106781186548));
#1429=DIRECTION('',(0.,1.,0.));
#1430=DIRECTION('',(0.,1.,0.));
#1431=DIRECTION('',(0.,1.,0.));
#1432=DIRECTION('',(0.,0.,1.));
#1433=DIRECTION('',(0.,0.,-1.));
#1434=DIRECTION('',(-1.,0.,0.));
#1435=DIRECTION('',(0.,0.,1.));
#1436=DIRECTION('',(1.,0.,0.));
#1437=DIRECTION('',(0.,-0.707106781186548,-0.707106781186548));
#1438=DIRECTION('',(0.,-0.707106781186548,0.707106781186548));
#1439=DIRECTION('',(0.,-1.,0.));
#1440=DIRECTION('',(0.,0.,-1.));
#1441=DIRECTION('',(0.,-0.707106781186548,0.707106781186548));
#1442=DIRECTION('',(0.,0.707106781186548,0.707106781186548));
#1443=DIRECTION('',(0.,0.,1.));
#1444=DIRECTION('',(1.,0.,0.));
#1445=DIRECTION('',(0.,0.,1.));
#1446=DIRECTION('',(1.,0.,0.));
#1447=DIRECTION('',(0.,0.,-1.));
#1448=DIRECTION('',(1.,0.,0.));
#1449=DIRECTION('',(0.,1.,0.));
#1450=DIRECTION('',(0.,0.,1.));
#1451=DIRECTION('',(1.,0.,0.));
#1452=DIRECTION('',(0.,0.,-1.));
#1453=DIRECTION('',(1.,0.,0.));
#1454=DIRECTION('',(0.,0.,-1.));
#1455=DIRECTION('',(0.,0.,-1.));
#1456=DIRECTION('',(-1.,0.,0.));
#1457=DIRECTION('',(0.,0.,-1.));
#1458=DIRECTION('',(0.,0.,-1.));
#1459=DIRECTION('',(-1.,0.,0.));
#1460=DIRECTION('',(-1.,-1.15648231731787E-16,0.));
#1461=DIRECTION('',(1.15648231731787E-16,-1.,0.));
#1462=DIRECTION('',(-1.15648231731787E-16,1.,0.));
#1463=DIRECTION('',(0.,0.,-1.));
#1464=DIRECTION('',(-1.15648231731787E-16,1.,0.));
#1465=DIRECTION('',(0.,0.,-1.));
#1466=DIRECTION('',(-1.,0.,0.));
#1467=DIRECTION('',(0.,0.,-1.));
#1468=DIRECTION('',(0.,0.,-1.));
#1469=DIRECTION('',(-1.,0.,0.));
#1470=DIRECTION('',(0.,1.,0.));
#1471=DIRECTION('',(0.,0.,1.));
#1472=DIRECTION('',(1.,0.,0.));
#1473=DIRECTION('',(0.,0.,-1.));
#1474=DIRECTION('',(1.,0.,0.));
#1475=DIRECTION('',(0.,0.,-1.));
#1476=DIRECTION('',(-1.,0.,0.));
#1477=DIRECTION('',(0.,0.,-1.));
#1478=DIRECTION('',(0.,0.,-1.));
#1479=DIRECTION('',(-1.,0.,0.));
#1480=DIRECTION('',(-1.,-1.15648231731787E-16,0.));
#1481=DIRECTION('',(1.15648231731787E-16,-1.,0.));
#1482=DIRECTION('',(-1.15648231731787E-16,1.,0.));
#1483=DIRECTION('',(0.,0.,-1.));
#1484=DIRECTION('',(-1.15648231731787E-16,1.,0.));
#1485=DIRECTION('',(0.,0.,-1.));
#1486=DIRECTION('',(-1.,0.,0.));
#1487=DIRECTION('',(0.,0.,-1.));
#1488=DIRECTION('',(-1.,0.,0.));
#1489=DIRECTION('',(0.,0.,-1.));
#1490=DIRECTION('',(1.,0.,0.));
#1491=DIRECTION('',(0.707106781186547,0.,0.707106781186548));
#1492=DIRECTION('',(0.,-1.,0.));
#1493=DIRECTION('',(0.707106781186548,0.,-0.707106781186547));
#1494=DIRECTION('',(-0.707106781186548,0.,0.707106781186547));
#1495=DIRECTION('',(0.,0.,1.));
#1496=DIRECTION('',(1.,0.,0.));
#1497=DIRECTION('',(0.,0.707106781186548,0.707106781186547));
#1498=DIRECTION('',(0.,0.,1.));
#1499=DIRECTION('',(1.,0.,0.));
#1500=DIRECTION('',(0.,0.707106781186548,-0.707106781186547));
#1501=DIRECTION('',(0.,-0.707106781186547,0.707106781186548));
#1502=DIRECTION('',(1.,0.,0.));
#1503=DIRECTION('',(0.,0.707106781186548,0.707106781186547));
#1504=DIRECTION('',(0.,-0.707106781186547,-0.707106781186548));
#1505=DIRECTION('',(-1.,0.,0.));
#1506=DIRECTION('',(0.,0.707106781186548,-0.707106781186547));
#1507=DIRECTION('',(0.,0.,1.));
#1508=DIRECTION('',(1.,0.,0.));
#1509=DIRECTION('',(0.707106781186548,0.,0.707106781186547));
#1510=DIRECTION('',(0.,0.,1.));
#1511=DIRECTION('',(1.,0.,0.));
#1512=DIRECTION('',(-0.707106781186548,0.,-0.707106781186547));
#1513=DIRECTION('',(0.707106781186547,0.,-0.707106781186548));
#1514=DIRECTION('',(0.,1.,0.));
#1515=CARTESIAN_POINT('',(0.,0.,0.));
#1516=CARTESIAN_POINT('',(0.,0.,-0.015));
#1517=CARTESIAN_POINT('',(0.065,0.065,-0.015));
#1518=CARTESIAN_POINT('',(0.065,0.08,-0.015));
#1519=CARTESIAN_POINT('',(0.08,0.065,-0.015));
#1520=CARTESIAN_POINT('',(0.08,-0.065,-0.015));
#1521=CARTESIAN_POINT('',(0.08,0.06,-0.015));
#1522=CARTESIAN_POINT('',(0.06,0.06,-0.015));
#1523=CARTESIAN_POINT('',(0.06,0.08,-0.015));
#1524=CARTESIAN_POINT('',(0.,0.08,-0.015));
#1525=CARTESIAN_POINT('',(0.,0.,-0.015));
#1526=CARTESIAN_POINT('',(-0.065,0.065,-0.015));
#1527=CARTESIAN_POINT('',(-0.08,0.065,-0.015));
#1528=CARTESIAN_POINT('',(-0.065,0.08,-0.015));
#1529=CARTESIAN_POINT('',(0.,0.08,-0.015));
#1530=CARTESIAN_POINT('',(-0.06,0.08,-0.015));
#1531=CARTESIAN_POINT('',(-0.06,0.06,-0.015));
#1532=CARTESIAN_POINT('',(-0.08,0.06,-0.015));
#1533=CARTESIAN_POINT('',(-0.08,0.,-0.015));
#1534=CARTESIAN_POINT('',(0.,0.,-0.015));
#1535=CARTESIAN_POINT('',(-0.065,-0.065,-0.015));
#1536=CARTESIAN_POINT('',(-0.065,-0.08,-0.015));
#1537=CARTESIAN_POINT('',(-0.08,-0.065,-0.015));
#1538=CARTESIAN_POINT('',(-0.08,0.,-0.015));
#1539=CARTESIAN_POINT('',(-0.08,-0.06,-0.015));
#1540=CARTESIAN_POINT('',(-0.06,-0.06,-0.015));
#1541=CARTESIAN_POINT('',(-0.06,-0.08,-0.015));
#1542=CARTESIAN_POINT('',(-0.065,-0.08,-0.015));
#1543=CARTESIAN_POINT('',(-1.38777878078145E-17,0.075,-0.015));
#1544=CARTESIAN_POINT('',(-0.055,0.075,-0.015));
#1545=CARTESIAN_POINT('',(-0.055,0.075,0.));
#1546=CARTESIAN_POINT('',(-0.055,0.075,-0.005));
#1547=CARTESIAN_POINT('',(-1.38777878078145E-17,0.075,-0.005));
#1548=CARTESIAN_POINT('',(0.055,0.075,-0.005));
#1549=CARTESIAN_POINT('',(0.055,0.075,-0.015));
#1550=CARTESIAN_POINT('',(0.055,0.075,0.));
#1551=CARTESIAN_POINT('',(-1.38777878078145E-17,0.075,0.));
#1552=CARTESIAN_POINT('',(-0.075,0.,-0.015));
#1553=CARTESIAN_POINT('',(-0.075,-0.055,-0.015));
#1554=CARTESIAN_POINT('',(-0.075,-0.055,0.));
#1555=CARTESIAN_POINT('',(-0.075,-0.055,-0.005));
#1556=CARTESIAN_POINT('',(-0.075,0.,-0.005));
#1557=CARTESIAN_POINT('',(-0.075,0.055,-0.005));
#1558=CARTESIAN_POINT('',(-0.075,0.055,0.));
#1559=CARTESIAN_POINT('',(-0.075,0.055,0.));
#1560=CARTESIAN_POINT('',(-0.075,0.,0.));
#1561=CARTESIAN_POINT('',(-0.075,0.0301766209304333,0.));
#1562=CARTESIAN_POINT('',(-0.075,0.,0.));
#1563=CARTESIAN_POINT('',(-0.075,0.0101766209304333,0.));
#1564=CARTESIAN_POINT('',(-0.075,0.,0.));
#1565=CARTESIAN_POINT('',(1.38777878078145E-17,-0.075,-0.015));
#1566=CARTESIAN_POINT('',(1.38777878078145E-17,-0.075,-0.005));
#1567=CARTESIAN_POINT('',(-0.055,-0.075,-0.005));
#1568=CARTESIAN_POINT('',(0.055,-0.075,-0.005));
#1569=CARTESIAN_POINT('',(-0.055,-0.075,-0.015));
#1570=CARTESIAN_POINT('',(-0.055,-0.075,0.));
#1571=CARTESIAN_POINT('',(1.38777878078145E-17,-0.075,0.));
#1572=CARTESIAN_POINT('',(0.055,-0.075,0.));
#1573=CARTESIAN_POINT('',(0.055,-0.075,-0.015));
#1574=CARTESIAN_POINT('',(0.075,0.,-0.015));
#1575=CARTESIAN_POINT('',(0.075,0.,-0.005));
#1576=CARTESIAN_POINT('',(0.075,-0.055,-0.005));
#1577=CARTESIAN_POINT('',(0.075,0.055,-0.005));
#1578=CARTESIAN_POINT('',(0.075,-0.055,0.));
#1579=CARTESIAN_POINT('',(0.075,-0.055,0.));
#1580=CARTESIAN_POINT('',(0.075,0.,0.));
#1581=CARTESIAN_POINT('',(0.075,0.055,0.));
#1582=CARTESIAN_POINT('',(0.075,0.055,-0.015));
#1583=CARTESIAN_POINT('',(0.,0.,-0.015));
#1584=CARTESIAN_POINT('',(0.06,-0.06,-0.015));
#1585=CARTESIAN_POINT('',(0.08,-0.06,-0.015));
#1586=CARTESIAN_POINT('',(0.06,-0.08,-0.015));
#1587=CARTESIAN_POINT('',(0.08,-0.065,-0.015));
#1588=CARTESIAN_POINT('',(0.08,-0.065,-0.015));
#1589=CARTESIAN_POINT('',(0.065,-0.065,-0.015));
#1590=CARTESIAN_POINT('',(0.065,-0.08,-0.015));
#1591=CARTESIAN_POINT('',(-0.065,-0.08,-0.015));
#1592=CARTESIAN_POINT('',(-0.055,0.055,-0.015));
#1593=CARTESIAN_POINT('',(-0.055,0.055,-0.005));
#1594=CARTESIAN_POINT('',(-0.055,0.055,0.));
#1595=CARTESIAN_POINT('',(0.055,-0.055,-0.015));
#1596=CARTESIAN_POINT('',(0.055,-0.055,-0.005));
#1597=CARTESIAN_POINT('',(0.055,-0.055,0.));
#1598=CARTESIAN_POINT('',(-0.055,-0.055,-0.015));
#1599=CARTESIAN_POINT('',(-0.055,-0.055,-0.005));
#1600=CARTESIAN_POINT('',(-0.055,-0.055,0.));
#1601=CARTESIAN_POINT('',(0.055,0.055,-0.015));
#1602=CARTESIAN_POINT('',(0.055,0.055,-0.005));
#1603=CARTESIAN_POINT('',(0.055,0.055,0.));
#1604=CARTESIAN_POINT('',(-0.045,0.038,0.005));
#1605=CARTESIAN_POINT('',(-0.045,0.038,0.005));
#1606=CARTESIAN_POINT('',(-0.045,0.07,0.005));
#1607=CARTESIAN_POINT('',(-0.045,0.0301766209304333,0.005));
#1608=CARTESIAN_POINT('',(-0.045,0.0301766209304333,0.007));
#1609=CARTESIAN_POINT('',(-0.045,0.0301766209304333,0.));
#1610=CARTESIAN_POINT('',(-0.045,0.038,0.));
#1611=CARTESIAN_POINT('',(-0.045,0.07,0.));
#1612=CARTESIAN_POINT('',(-0.045,0.07,0.005));
#1613=CARTESIAN_POINT('',(-0.085,0.,0.01));
#1614=CARTESIAN_POINT('',(-0.085,0.065,0.01));
#1615=CARTESIAN_POINT('',(-0.085,0.065,0.));
#1616=CARTESIAN_POINT('',(-0.085,0.065,-0.01));
#1617=CARTESIAN_POINT('',(-0.085,0.,-0.01));
#1618=CARTESIAN_POINT('',(-0.085,-0.065,-0.01));
#1619=CARTESIAN_POINT('',(-0.085,-0.065,0.));
#1620=CARTESIAN_POINT('',(-0.085,-0.065,0.));
#1621=CARTESIAN_POINT('',(-0.085,-0.065,0.01));
#1622=CARTESIAN_POINT('',(-0.085,-0.065,0.01));
#1623=CARTESIAN_POINT('',(-0.085,0.,0.01));
#1624=CARTESIAN_POINT('',(-0.085,0.065,0.01));
#1625=CARTESIAN_POINT('',(-0.085,0.065,0.01));
#1626=CARTESIAN_POINT('',(-0.085,0.,0.));
#1627=CARTESIAN_POINT('',(-0.085,0.0321766209304333,0.));
#1628=CARTESIAN_POINT('',(-0.085,0.00817662093043327,0.));
#1629=CARTESIAN_POINT('',(-0.085,0.0321766209304333,0.01));
#1630=CARTESIAN_POINT('',(-0.085,0.0321766209304333,0.009));
#1631=CARTESIAN_POINT('',(-0.085,0.,0.009));
#1632=CARTESIAN_POINT('',(-0.085,0.00817662093043327,0.009));
#1633=CARTESIAN_POINT('',(-0.085,0.00817662093043327,0.));
#1634=CARTESIAN_POINT('',(-1.38777878078145E-17,0.,0.));
#1635=CARTESIAN_POINT('',(-0.07,0.0101766209304333,0.));
#1636=CARTESIAN_POINT('',(-0.045,0.0101766209304333,0.));
#1637=CARTESIAN_POINT('',(-0.045,0.038,0.));
#1638=CARTESIAN_POINT('',(-0.045,0.006,0.));
#1639=CARTESIAN_POINT('',(-0.042,0.006,0.));
#1640=CARTESIAN_POINT('',(-0.042,0.003,0.));
#1641=CARTESIAN_POINT('',(0.,0.003,0.));
#1642=CARTESIAN_POINT('',(0.042,0.003,0.));
#1643=CARTESIAN_POINT('',(0.042,0.006,0.));
#1644=CARTESIAN_POINT('',(0.045,0.006,0.));
#1645=CARTESIAN_POINT('',(0.045,0.038,0.));
#1646=CARTESIAN_POINT('',(0.045,0.07,0.));
#1647=CARTESIAN_POINT('',(0.042,0.07,0.));
#1648=CARTESIAN_POINT('',(0.042,0.073,0.));
#1649=CARTESIAN_POINT('',(0.,0.073,0.));
#1650=CARTESIAN_POINT('',(-0.042,0.073,0.));
#1651=CARTESIAN_POINT('',(-0.042,0.07,0.));
#1652=CARTESIAN_POINT('',(-0.07,0.0301766209304332,0.));
#1653=CARTESIAN_POINT('',(-1.38777878078145E-17,-0.085,0.01));
#1654=CARTESIAN_POINT('',(-0.065,-0.085,-0.015));
#1655=CARTESIAN_POINT('',(-0.065,-0.085,0.));
#1656=CARTESIAN_POINT('',(-0.065,-0.085,-0.01));
#1657=CARTESIAN_POINT('',(0.065,-0.085,-0.01));
#1658=CARTESIAN_POINT('',(0.065,-0.085,-0.01));
#1659=CARTESIAN_POINT('',(0.065,-0.085,0.01));
#1660=CARTESIAN_POINT('',(0.065,-0.085,0.));
#1661=CARTESIAN_POINT('',(0.065,-0.085,0.01));
#1662=CARTESIAN_POINT('',(0.065,-0.085,0.01));
#1663=CARTESIAN_POINT('',(-1.38777878078145E-17,-0.085,0.01));
#1664=CARTESIAN_POINT('',(-0.065,-0.085,0.01));
#1665=CARTESIAN_POINT('',(-0.065,-0.085,0.));
#1666=CARTESIAN_POINT('',(0.085,0.,0.01));
#1667=CARTESIAN_POINT('',(0.085,-0.065,0.01));
#1668=CARTESIAN_POINT('',(0.085,-0.065,0.));
#1669=CARTESIAN_POINT('',(0.085,-0.065,-0.01));
#1670=CARTESIAN_POINT('',(0.085,0.065,-0.01));
#1671=CARTESIAN_POINT('',(0.085,0.065,-0.01));
#1672=CARTESIAN_POINT('',(0.085,0.065,0.));
#1673=CARTESIAN_POINT('',(0.085,0.065,0.));
#1674=CARTESIAN_POINT('',(0.085,0.065,0.01));
#1675=CARTESIAN_POINT('',(0.085,0.065,0.01));
#1676=CARTESIAN_POINT('',(0.085,0.,0.01));
#1677=CARTESIAN_POINT('',(0.085,-0.065,0.01));
#1678=CARTESIAN_POINT('',(0.085,-0.065,0.01));
#1679=CARTESIAN_POINT('',(-1.38777878078145E-17,0.085,0.01));
#1680=CARTESIAN_POINT('',(0.065,0.085,-0.015));
#1681=CARTESIAN_POINT('',(0.065,0.085,0.));
#1682=CARTESIAN_POINT('',(0.065,0.085,-0.01));
#1683=CARTESIAN_POINT('',(-1.38777878078145E-17,0.085,-0.01));
#1684=CARTESIAN_POINT('',(-0.065,0.085,-0.01));
#1685=CARTESIAN_POINT('',(-0.065,0.085,0.01));
#1686=CARTESIAN_POINT('',(-0.065,0.085,0.));
#1687=CARTESIAN_POINT('',(-0.065,0.085,0.01));
#1688=CARTESIAN_POINT('',(-0.065,0.085,0.01));
#1689=CARTESIAN_POINT('',(-1.38777878078145E-17,0.085,0.01));
#1690=CARTESIAN_POINT('',(0.065,0.085,0.01));
#1691=CARTESIAN_POINT('',(0.065,0.085,0.));
#1692=CARTESIAN_POINT('',(-1.38777878078145E-17,0.,0.01));
#1693=CARTESIAN_POINT('',(0.065,0.065,0.01));
#1694=CARTESIAN_POINT('',(-0.065,0.065,0.01));
#1695=CARTESIAN_POINT('',(-0.065,-0.065,0.01));
#1696=CARTESIAN_POINT('',(0.065,-0.065,0.01));
#1697=CARTESIAN_POINT('',(0.065,0.065,0.01));
#1698=CARTESIAN_POINT('',(0.065,0.065,-0.01));
#1699=CARTESIAN_POINT('',(-0.065,0.065,0.01));
#1700=CARTESIAN_POINT('',(-0.065,0.065,-0.01));
#1701=CARTESIAN_POINT('',(-0.065,-0.065,0.01));
#1702=CARTESIAN_POINT('',(-0.065,-0.065,-0.01));
#1703=CARTESIAN_POINT('',(0.065,-0.065,0.01));
#1704=CARTESIAN_POINT('',(0.065,-0.065,-0.01));
#1705=CARTESIAN_POINT('',(-0.045,0.038,0.005));
#1706=CARTESIAN_POINT('',(-0.045,0.0101766209304333,0.007));
#1707=CARTESIAN_POINT('',(-0.045,0.0101766209304333,0.005));
#1708=CARTESIAN_POINT('',(-0.045,0.038,0.005));
#1709=CARTESIAN_POINT('',(-0.045,0.006,0.005));
#1710=CARTESIAN_POINT('',(-0.045,0.006,0.));
#1711=CARTESIAN_POINT('',(0.,0.073,0.005));
#1712=CARTESIAN_POINT('',(0.042,0.073,0.005));
#1713=CARTESIAN_POINT('',(0.042,0.073,0.005));
#1714=CARTESIAN_POINT('',(0.,0.073,0.005));
#1715=CARTESIAN_POINT('',(-0.042,0.073,0.005));
#1716=CARTESIAN_POINT('',(-0.042,0.073,0.005));
#1717=CARTESIAN_POINT('',(0.045,0.038,0.005));
#1718=CARTESIAN_POINT('',(0.045,0.038,0.005));
#1719=CARTESIAN_POINT('',(0.045,0.07,0.005));
#1720=CARTESIAN_POINT('',(0.045,0.006,0.005));
#1721=CARTESIAN_POINT('',(0.045,0.07,0.));
#1722=CARTESIAN_POINT('',(0.045,0.006,0.005));
#1723=CARTESIAN_POINT('',(0.,0.003,0.005));
#1724=CARTESIAN_POINT('',(0.,0.003,0.005));
#1725=CARTESIAN_POINT('',(-0.042,0.003,0.005));
#1726=CARTESIAN_POINT('',(0.042,0.003,0.005));
#1727=CARTESIAN_POINT('',(0.042,0.003,0.005));
#1728=CARTESIAN_POINT('',(-0.042,0.003,0.005));
#1729=CARTESIAN_POINT('',(-1.38777878078145E-17,0.,0.005));
#1730=CARTESIAN_POINT('',(-0.0421715728752538,0.,0.005));
#1731=CARTESIAN_POINT('',(-0.0421715728752538,0.0101766209304333,0.005));
#1732=CARTESIAN_POINT('',(-0.0421715728752538,0.0301766209304332,0.005));
#1733=CARTESIAN_POINT('',(-9.6899403875204E-18,0.0301766209304332,0.005));
#1734=CARTESIAN_POINT('',(-0.042,0.07,0.005));
#1735=CARTESIAN_POINT('',(0.042,0.07,0.005));
#1736=CARTESIAN_POINT('',(0.042,0.006,0.005));
#1737=CARTESIAN_POINT('',(-0.042,0.006,0.005));
#1738=CARTESIAN_POINT('',(-0.07,0.0101766209304333,0.005));
#1739=CARTESIAN_POINT('',(0.042,0.07,0.005));
#1740=CARTESIAN_POINT('',(0.042,0.006,0.005));
#1741=CARTESIAN_POINT('',(-0.042,0.07,0.005));
#1742=CARTESIAN_POINT('',(-0.042,0.006,0.005));
#1743=CARTESIAN_POINT('',(-0.07,0.0301766209304332,0.007));
#1744=CARTESIAN_POINT('',(-0.07,0.0301766209304332,0.007));
#1745=CARTESIAN_POINT('',(-0.045,0.0301766209304333,0.007));
#1746=CARTESIAN_POINT('',(-0.083,0.0301766209304333,0.007));
#1747=CARTESIAN_POINT('',(-0.083,0.0301766209304333,0.007));
#1748=CARTESIAN_POINT('',(-0.083,0.0301766209304333,0.));
#1749=CARTESIAN_POINT('',(-0.07,0.0301766209304332,0.));
#1750=CARTESIAN_POINT('',(-0.0421715728752538,0.0301766209304332,0.007));
#1751=CARTESIAN_POINT('',(-0.0435857864376269,0.0301766209304332,0.00558578643762691));
#1752=CARTESIAN_POINT('',(-0.045,0.0301766209304332,0.007));
#1753=CARTESIAN_POINT('',(-0.07,0.0101766209304333,0.007));
#1754=CARTESIAN_POINT('',(-0.07,0.0101766209304333,0.));
#1755=CARTESIAN_POINT('',(-0.083,0.0101766209304333,0.));
#1756=CARTESIAN_POINT('',(-0.083,0.0101766209304333,0.007));
#1757=CARTESIAN_POINT('',(-0.083,0.0101766209304333,0.007));
#1758=CARTESIAN_POINT('',(-0.07,0.0101766209304333,0.007));
#1759=CARTESIAN_POINT('',(-0.045,0.0101766209304333,0.007));
#1760=CARTESIAN_POINT('',(-0.0575,0.0101766209304333,0.0195));
#1761=CARTESIAN_POINT('',(-0.0435857864376269,0.0101766209304333,0.00558578643762691));
#1762=CARTESIAN_POINT('',(-0.0421715728752538,0.0101766209304333,0.007));
#1763=CARTESIAN_POINT('',(-0.005,0.,0.007));
#1764=CARTESIAN_POINT('',(-0.083,0.,0.007));
#1765=CARTESIAN_POINT('',(-0.045,0.038,0.007));
#1766=CARTESIAN_POINT('',(-0.045,0.038,0.007));
#1767=CARTESIAN_POINT('',(-0.0435857864376269,0.038,0.0055857864376269));
#1768=CARTESIAN_POINT('',(-0.0421715728752538,0.,0.007));
#1769=CARTESIAN_POINT('',(-0.083,0.00817662093043327,0.007));
#1770=CARTESIAN_POINT('',(-0.083,0.00817662093043327,0.));
#1771=CARTESIAN_POINT('',(-0.083,0.00817662093043327,0.009));
#1772=CARTESIAN_POINT('',(-0.083,0.,0.009));
#1773=CARTESIAN_POINT('',(-0.083,0.0321766209304333,0.009));
#1774=CARTESIAN_POINT('',(-0.083,0.0321766209304333,0.01));
#1775=CARTESIAN_POINT('',(-0.083,0.0321766209304333,0.));
#1776=CARTESIAN_POINT('',(0.,0.,0.));
#1777=CARTESIAN_POINT('',(3.46944695195361E-18,-0.08,-0.005));
#1778=CARTESIAN_POINT('',(3.46944695195361E-18,-0.08,-0.015));
#1779=CARTESIAN_POINT('',(-0.06,-0.08,-0.005));
#1780=CARTESIAN_POINT('',(-0.06,-0.08,-0.005));
#1781=CARTESIAN_POINT('',(3.46944695195361E-18,-0.08,-0.005));
#1782=CARTESIAN_POINT('',(0.06,-0.08,-0.005));
#1783=CARTESIAN_POINT('',(0.06,-0.08,-0.005));
#1784=CARTESIAN_POINT('',(-0.06,-0.06,-0.005));
#1785=CARTESIAN_POINT('',(-0.08,-0.06,-0.005));
#1786=CARTESIAN_POINT('',(-0.08,-0.06,-0.005));
#1787=CARTESIAN_POINT('',(-0.06,-0.06,-0.005));
#1788=CARTESIAN_POINT('',(-0.08,-2.08166817117217E-17,-0.005));
#1789=CARTESIAN_POINT('',(-0.08,-2.08166817117217E-17,-0.015));
#1790=CARTESIAN_POINT('',(-0.08,0.06,-0.005));
#1791=CARTESIAN_POINT('',(-0.08,0.06,-0.005));
#1792=CARTESIAN_POINT('',(-0.08,-2.08166817117217E-17,-0.005));
#1793=CARTESIAN_POINT('',(-0.06,0.06,-0.005));
#1794=CARTESIAN_POINT('',(-0.06,0.08,-0.005));
#1795=CARTESIAN_POINT('',(-0.06,0.08,-0.005));
#1796=CARTESIAN_POINT('',(-0.06,0.06,-0.005));
#1797=CARTESIAN_POINT('',(-6.93889390390723E-18,0.08,-0.005));
#1798=CARTESIAN_POINT('',(-6.93889390390723E-18,0.08,-0.015));
#1799=CARTESIAN_POINT('',(0.06,0.08,-0.005));
#1800=CARTESIAN_POINT('',(0.06,0.08,-0.005));
#1801=CARTESIAN_POINT('',(-6.93889390390723E-18,0.08,-0.005));
#1802=CARTESIAN_POINT('',(0.06,0.06,-0.005));
#1803=CARTESIAN_POINT('',(0.08,0.06,-0.005));
#1804=CARTESIAN_POINT('',(0.08,0.06,-0.005));
#1805=CARTESIAN_POINT('',(0.06,0.06,-0.005));
#1806=CARTESIAN_POINT('',(0.08,-1.38777878078145E-17,-0.005));
#1807=CARTESIAN_POINT('',(0.08,-1.38777878078145E-17,-0.015));
#1808=CARTESIAN_POINT('',(0.08,-0.06,-0.005));
#1809=CARTESIAN_POINT('',(0.08,-0.06,-0.005));
#1810=CARTESIAN_POINT('',(0.08,-1.38777878078145E-17,-0.005));
#1811=CARTESIAN_POINT('',(0.06,-0.06,-0.005));
#1812=CARTESIAN_POINT('',(0.06,-0.06,-0.005));
#1813=CARTESIAN_POINT('',(0.,0.,-0.005));
#1814=CARTESIAN_POINT('',(-0.085,0.,-0.01));
#1815=CARTESIAN_POINT('',(-0.085,-0.065,-0.01));
#1816=CARTESIAN_POINT('',(-0.08,0.065,-0.015));
#1817=CARTESIAN_POINT('',(-0.065,0.065,-0.015));
#1818=CARTESIAN_POINT('',(-0.065,0.08,-0.015));
#1819=CARTESIAN_POINT('',(-0.065,-0.065,-0.015));
#1820=CARTESIAN_POINT('',(-0.065,-0.085,-0.01));
#1821=CARTESIAN_POINT('',(0.,0.08,-0.015));
#1822=CARTESIAN_POINT('',(0.065,0.08,-0.015));
#1823=CARTESIAN_POINT('',(-1.38777878078145E-17,-0.085,-0.01));
#1824=CARTESIAN_POINT('',(0.065,-0.085,-0.01));
#1825=CARTESIAN_POINT('',(0.065,0.065,-0.015));
#1826=CARTESIAN_POINT('',(0.08,0.065,-0.015));
#1827=CARTESIAN_POINT('',(0.065,-0.065,-0.015));
#1828=CARTESIAN_POINT('',(0.085,-0.065,-0.01));
#1829=CARTESIAN_POINT('',(0.08,0.,-0.015));
#1830=MECHANICAL_DESIGN_GEOMETRIC_PRESENTATION_REPRESENTATION('',(#1087),
#1831);
#1831=(
GEOMETRIC_REPRESENTATION_CONTEXT(3)
GLOBAL_UNCERTAINTY_ASSIGNED_CONTEXT((#1832))
GLOBAL_UNIT_ASSIGNED_CONTEXT((#1835,#1834,#1833))
REPRESENTATION_CONTEXT('Part 1','TOP_LEVEL_ASSEMBLY_PART')
);
#1832=UNCERTAINTY_MEASURE_WITH_UNIT(LENGTH_MEASURE(1.E-8),#1835,
'DISTANCE_ACCURACY_VALUE','Maximum Tolerance applied to model');
#1833=(
NAMED_UNIT(*)
SI_UNIT($,.STERADIAN.)
SOLID_ANGLE_UNIT()
);
#1834=(
NAMED_UNIT(*)
PLANE_ANGLE_UNIT()
SI_UNIT($,.RADIAN.)
);
#1835=(
LENGTH_UNIT()
NAMED_UNIT(*)
SI_UNIT($,.METRE.)
);
#1836=PRODUCT_DEFINITION_SHAPE('','',#1837);
#1837=PRODUCT_DEFINITION('','',#1839,#1838);
#1838=PRODUCT_DEFINITION_CONTEXT('',#1845,'design');
#1839=PRODUCT_DEFINITION_FORMATION_WITH_SPECIFIED_SOURCE('','',#1841,
 .NOT_KNOWN.);
#1840=PRODUCT_RELATED_PRODUCT_CATEGORY('','',(#1841));
#1841=PRODUCT('Part 1','Part 1','Part 1',(#1843));
#1842=PRODUCT_CATEGORY('','');
#1843=PRODUCT_CONTEXT('',#1845,'mechanical');
#1844=APPLICATION_PROTOCOL_DEFINITION('international standard',
'ap242_managed_model_based_3d_engineering',2020,#1845);
#1845=APPLICATION_CONTEXT('managed model based 3d engineering');
ENDSEC;
END-ISO-10303-21;
